<?xml version="1.0" encoding="utf-8"?> <svg xmlns="http://www.w3.org/2000/svg" viewBox="0 0 280 102" fill="none"><path d="M117.854 14.6663H125.324C126.699 14.6663 127.05 15.6871 127.05 16.8852C127.05 18.9629 126.239 19.8819 123.913 19.8819H117.851V24.8153C117.851 28.2683 117.851 29.5714 115.419 29.5714C114.399 29.5714 111.931 29.4302 111.931 28.2683V6.10275C111.931 5.32812 112.108 4.2351 113.693 3.98893C115.209 3.74276 117.956 3.49658 121.021 3.49658C123.558 3.49658 127.434 3.70665 128.386 3.84779C129.479 3.98893 130.148 4.30732 130.148 5.22309C130.148 5.96161 129.902 8.57105 128.668 8.57105C128.35 8.57105 127.821 8.53495 127.293 8.50212C126.131 8.36098 124.72 8.29206 123.24 8.29206C121.55 8.29206 119.433 8.32816 117.848 8.57434V14.6696L117.854 14.6663Z" fill="#001E55"></path><path d="M140.614 7.72412C148.189 7.72412 150.584 13.1498 150.584 18.6477C150.584 24.1456 148.189 29.5713 140.614 29.5713C133.04 29.5713 130.713 24.1095 130.713 18.6477C130.713 13.1859 133.004 7.72412 140.614 7.72412ZM136.492 18.6838C136.492 21.6444 137.621 24.6379 140.614 24.6379C143.607 24.6379 144.808 21.6412 144.808 18.6838C144.808 15.7264 143.679 12.6575 140.614 12.6575C137.549 12.6575 136.492 15.6181 136.492 18.6838Z" fill="#001E55"></path><path d="M155.976 29.4662C154.989 29.4662 152.593 29.3251 152.593 28.196V9.23727C152.593 8.14426 154.496 8.07533 155.622 8.07533C157.525 8.07533 157.982 9.0272 158.09 11.7417C159.219 9.3817 161.756 7.72412 164.713 7.72412C168.976 7.72412 170.984 10.4386 170.984 15.2997V25.6259C170.948 28.4093 170.807 29.4662 168.552 29.4662C167.601 29.4662 165.169 29.3251 165.169 28.196V16.3566C165.169 14.4168 164.745 13.1137 163.091 13.1137C160.272 13.1137 158.405 16.9901 158.405 20.9716V25.0252C158.405 28.2682 158.405 29.4662 155.973 29.4662H155.976Z" fill="#001E55"></path><path d="M183.495 7.72439C184.552 7.72439 185.608 7.90164 186.596 8.18392V2.19368C186.596 1.10067 189.415 1.03174 189.98 1.03174C192.307 1.03174 192.412 2.12475 192.412 5.33158V24.113C192.412 25.3472 192.412 27.0737 192.799 27.7433C193.609 29.2597 191 29.5748 189.629 29.5748C187.938 29.5748 186.599 28.9052 186.599 26.7914V25.9807C186.107 26.6503 185.543 27.2837 184.909 27.8122C183.324 29.0464 181.598 29.6076 179.799 29.6076C174.903 29.6076 172.927 25.7312 172.927 20.6567C172.927 12.9761 176.872 7.72439 183.498 7.72439H183.495ZM186.596 14.9127V13.2912C185.996 13.0811 185.257 12.94 184.341 12.94C180.853 12.94 179.022 16.3241 179.022 20.0594C179.022 22.4916 179.691 24.3953 181.49 24.3953C184.555 24.3953 186.599 19.2847 186.599 14.916L186.596 14.9127Z" fill="#001E55"></path><path d="M213.409 27.7397C214.256 29.2562 211.647 29.5713 210.272 29.5713C208.791 29.5713 207.594 29.0789 207.311 27.5625C206.008 28.8656 203.613 29.5713 201.427 29.5713C196.284 29.5713 194.804 26.4366 194.804 23.1576C194.804 18.2243 198.188 15.9693 203.33 15.9693C205.129 15.9693 206.819 16.2155 207.275 16.2155V15.5459C207.275 13.5732 206.077 12.9036 203.222 12.9036C200.616 12.9036 199.064 13.327 197.866 13.6093C197.62 13.6783 197.443 13.7144 197.266 13.7144C196.104 13.7144 195.927 10.9309 195.927 9.94297C195.927 9.27338 195.963 8.88606 196.983 8.53486C197.794 8.25258 200.049 7.72412 203.855 7.72412C208.05 7.72412 213.051 8.49875 213.051 15.7592V24.2178C213.051 25.4519 213.051 27.1062 213.402 27.743L213.409 27.7397ZM202.979 25.1664C205.339 25.1664 207.101 22.8064 207.242 21.0077V20.3381C206.432 20.1969 205.762 20.128 204.952 20.128C202.238 20.128 200.689 21.3261 200.689 23.0165C200.689 24.2867 201.535 25.1664 202.979 25.1664Z" fill="#001E55"></path><path d="M217.215 8.0752V6.52595C217.215 5.25897 218.062 4.27099 219.893 3.35522C220.773 2.8957 221.409 2.6167 221.902 2.6167C222.712 2.6167 223.031 3.42743 223.031 5.50514V8.07848H226.306C227.116 8.07848 227.996 8.21962 227.996 9.34874C227.996 12.0632 227.504 12.8017 226.092 12.8017H223.027V23.1608C223.027 24.4638 223.697 24.9595 224.717 24.9595C225.492 24.9595 225.987 24.8544 226.972 24.536C227.254 24.431 227.5 24.3588 227.678 24.3588C228.347 24.3588 228.383 26.8599 228.383 27.884C228.383 28.7309 226.834 29.5744 223.31 29.5744C218.728 29.5744 217.215 27.6017 217.215 23.338V12.8017H216.053C214.678 12.8017 214.291 12.5556 214.291 11.5315C214.291 9.84109 214.501 8.07848 216.194 8.07848H217.215V8.0752Z" fill="#001E55"></path><path d="M232.965 0.5C234.55 0.5 235.889 1.41577 235.889 3.31951C235.889 5.43333 234.232 6.3852 232.542 6.3852C230.993 6.3852 229.723 5.57447 229.723 3.67072C229.723 1.62584 231.239 0.5 232.965 0.5ZM235.889 23.4401C235.889 24.5693 236.349 24.9566 237.087 24.9566C237.438 24.9566 237.652 24.9566 237.967 24.8515C238.285 24.7826 238.495 24.7104 238.636 24.7104C239.552 24.7104 239.624 27.2115 239.624 28.2684C239.624 28.9019 238.285 29.5715 235.115 29.5715C231.344 29.5715 230.077 27.6678 230.077 23.6174V9.24082C230.077 8.14781 231.981 8.07888 233.106 8.07888C235.784 8.07888 235.889 9.59531 235.889 14.3153V23.4434V23.4401Z" fill="#001E55"></path><path d="M249.63 7.72412C257.204 7.72412 259.6 13.1498 259.6 18.6477C259.6 24.1456 257.204 29.5713 249.63 29.5713C242.055 29.5713 239.729 24.1095 239.729 18.6477C239.729 13.1859 242.019 7.72412 249.63 7.72412ZM245.508 18.6838C245.508 21.6444 246.637 24.6379 249.63 24.6379C252.623 24.6379 253.824 21.6412 253.824 18.6838C253.824 15.7264 252.695 12.6575 249.63 12.6575C246.565 12.6575 245.508 15.6181 245.508 18.6838Z" fill="#001E55"></path><path d="M264.992 29.4662C264.005 29.4662 261.609 29.3251 261.609 28.196V9.23727C261.609 8.14426 263.512 8.07533 264.638 8.07533C266.541 8.07533 266.998 9.0272 267.106 11.7417C268.235 9.3817 270.772 7.72412 273.729 7.72412C277.992 7.72412 280 10.4386 280 15.2997V25.6259C279.964 28.4093 279.823 29.4662 277.568 29.4662C276.617 29.4662 274.185 29.3251 274.185 28.196V16.3566C274.185 14.4168 273.762 13.1137 272.107 13.1137C269.288 13.1137 267.421 16.9901 267.421 20.9716V25.0252C267.421 28.2682 267.421 29.4662 264.989 29.4662H264.992Z" fill="#001E55"></path><path d="M118.137 44.1614H125.114C126.489 44.1614 126.804 45.1822 126.804 46.3803C126.804 48.0707 126.03 48.8125 123.739 48.8125H118.137V54.6616C119.617 54.9439 121.52 54.98 123.279 54.98C124.76 54.98 126.026 54.9111 127.119 54.7338C127.684 54.6977 128.176 54.6649 128.494 54.6649C129.728 54.6649 129.974 57.2743 129.974 58.0489C129.974 58.9647 129.305 59.247 128.248 59.4242C127.26 59.5654 123.384 59.7755 121.025 59.7755C118.065 59.7755 115.423 59.5293 113.979 59.2831C112.394 59.0008 112.216 57.9439 112.216 57.1693V36.3068C112.216 35.5322 112.394 34.4753 113.979 34.193C115.459 33.9469 118.101 33.7007 121.097 33.7007C123.424 33.7007 127.264 33.9108 128.248 34.0519C129.305 34.2291 129.974 34.5114 129.974 35.4272C129.974 36.2018 129.728 38.8113 128.494 38.8113C128.176 38.8113 127.648 38.7423 127.119 38.7062C126.099 38.6012 124.792 38.4962 123.348 38.4962C121.55 38.4962 119.614 38.5323 118.133 38.8145V44.1713L118.137 44.1614Z" fill="#001E55"></path><path d="M134.766 38.2437C136.564 38.2437 137.057 39.1233 137.198 41.5555C138.573 39.3695 140.722 37.9253 143.4 37.9253C145.937 37.9253 148.051 38.8411 148.966 41.8707C150.515 39.5107 152.878 37.9253 155.907 37.9253C159.15 37.9253 161.546 39.4056 161.546 44.9724V55.2264C161.546 58.4694 161.546 59.6674 159.114 59.6674C158.162 59.6674 155.73 59.5263 155.73 58.3971V46.3444C155.73 44.0895 155.166 43.2098 153.863 43.2098C152.488 43.2098 149.636 45.2875 149.495 51.1038V55.2264C149.495 58.4694 149.495 59.6674 147.063 59.6674C146.111 59.6674 143.715 59.5263 143.715 58.3971V46.3444C143.715 44.0534 143.082 43.2098 141.812 43.2098C140.542 43.2098 138.146 44.8674 137.549 49.3412V55.2264C137.549 58.4694 137.549 59.6674 135.117 59.6674C134.129 59.6674 131.733 59.5263 131.733 58.3971V39.3695C131.733 38.3126 133.637 38.2404 134.763 38.2404L134.766 38.2437Z" fill="#001E55"></path><path d="M163.554 48.885C163.554 43.351 165.458 37.9253 173.633 37.9253C179.553 37.9253 182.09 40.7809 182.09 45.3598C182.09 50.7526 178.674 52.4069 173.633 52.4069C172.717 52.4069 171.801 52.338 171.027 52.0885C170.426 51.9113 169.934 51.629 169.547 51.35C169.934 53.2898 171.204 54.908 175.254 54.908C177.472 54.908 179.13 54.4485 180.118 54.1334C180.682 53.9562 181.069 53.7822 181.247 53.7822C182.057 53.7822 182.339 56.6017 182.339 57.3074C182.339 57.872 182.129 58.1871 181.565 58.5055C180.367 59.1389 177.794 59.7724 174.2 59.7724C165.005 59.7724 163.561 53.6049 163.561 48.885H163.554ZM169.471 47.3324C170.351 47.7558 171.48 48.002 172.642 48.002C175.001 48.002 176.271 46.9451 176.271 45.1825C176.271 43.4199 175.037 42.7175 173.383 42.7175C170.778 42.7175 169.754 44.549 169.471 47.3324Z" fill="#001E55"></path><path d="M187.511 38.2437C189.556 38.2437 189.907 39.3728 189.979 42.6124C190.967 40.3936 192.867 37.9253 196.743 37.9253C198.328 37.9253 198.364 38.7721 198.364 39.4745C198.364 42.363 197.449 43.2459 196.074 43.2459C192.657 43.2459 190.294 47.6147 190.294 51.5962V55.2264C190.294 58.4694 190.294 59.6674 187.863 59.6674C186.875 59.6674 184.479 59.5263 184.479 58.3971V39.3695C184.479 38.3126 186.382 38.2404 187.508 38.2404L187.511 38.2437Z" fill="#001E55"></path><path d="M212.388 56.5328C211.928 57.0612 211.436 57.5536 210.872 58.0131C209.287 59.2801 207.488 59.7757 205.693 59.7757C200.796 59.7757 198.821 55.6892 198.821 50.2603C198.821 42.5796 202.733 37.9253 210.166 37.9253C213.231 37.9253 215.873 38.4176 217.353 39.0183C218.164 39.3367 218.233 39.619 218.233 40.0752V55.3676C218.233 65.3393 212.102 66.9968 206.428 66.9968C202.729 66.9968 199.697 66.5734 198.818 66.2911C198.217 66.045 198.079 65.9038 198.079 65.2342C198.079 63.7539 198.43 61.4989 199.1 61.4989C199.205 61.4989 199.7 61.535 199.979 61.5679C200.58 61.6729 202.726 62.0274 205.654 62.0274C209.671 62.0274 212.102 60.7604 212.385 56.5295L212.388 56.5328ZM212.424 46.2427V43.3543C211.823 43.1442 211.085 43.003 210.133 43.003C206.33 43.003 204.636 46.2099 204.636 50.2635C204.636 52.6596 205.411 54.7045 207.738 54.7045C210.662 54.7045 212.424 50.7592 212.424 46.246V46.2427Z" fill="#001E55"></path><path d="M229.795 37.9253C237.369 37.9253 239.765 43.351 239.765 48.8489C239.765 54.3468 237.369 59.7724 229.795 59.7724C222.22 59.7724 219.894 54.3106 219.894 48.8489C219.894 43.3871 222.184 37.9253 229.795 37.9253ZM225.67 48.885C225.67 51.8456 226.799 54.8391 229.792 54.8391C232.785 54.8391 233.986 51.8423 233.986 48.885C233.986 45.9276 232.857 42.8586 229.792 42.8586C226.726 42.8586 225.67 45.8193 225.67 48.885Z" fill="#001E55"></path><path d="M113.729 83.352C113.729 84.2875 113.651 84.6485 113.004 84.6485C112.705 84.6485 112.02 84.6091 112.02 84.2579V75.8617C112.02 75.5105 112.125 75.3563 112.643 75.2381C113.188 75.1068 114.212 75.0444 114.862 75.0444C117.392 75.0444 118.649 75.8617 118.649 78.1988C118.649 80.3651 117.612 81.4811 115.029 81.4811C114.563 81.4811 114.067 81.4548 113.733 81.3629V83.3487L113.729 83.352ZM116.906 78.2283C116.906 76.8005 116.037 76.423 114.973 76.423C114.596 76.423 114.195 76.4493 113.726 76.5412V79.9942C114.117 80.0992 114.711 80.1255 115.022 80.1255C116.086 80.1255 116.903 79.6463 116.903 78.2316L116.906 78.2283Z" fill="#001E55"></path><path d="M124.238 83.8088V83.5495C123.772 84.2355 122.836 84.6524 121.875 84.6524C120.096 84.6524 119.564 83.5495 119.564 82.3942C119.564 80.6283 120.848 79.7585 122.705 79.7585C123.302 79.7585 123.939 79.8372 124.248 79.8504V79.4105C124.248 78.3996 123.716 78.114 122.613 78.114C121.691 78.114 121.081 78.2683 120.667 78.3602C120.562 78.3864 120.513 78.3996 120.46 78.3996C120.122 78.3996 120.057 77.6217 120.057 77.3098C120.057 77.1162 120.07 76.998 120.369 76.893C120.667 76.8011 121.537 76.6074 122.794 76.6074C124.287 76.6074 125.921 76.9324 125.921 79.463V82.7585C125.921 83.2246 125.921 83.9007 126.04 84.1075C126.286 84.5605 125.534 84.6524 125.13 84.6524C124.625 84.6524 124.235 84.4325 124.235 83.8088H124.238ZM122.305 83.3657C123.539 83.3657 124.212 81.9773 124.238 81.2618V81.055C123.798 81.0024 123.473 80.9762 123.161 80.9762C122.032 80.9762 121.268 81.5079 121.268 82.3515C121.268 82.9226 121.606 83.3624 122.305 83.3624V83.3657Z" fill="#001E55"></path><path d="M128.311 76.709C129 76.709 129.036 77.1357 129.036 78.5636V78.6686C129.334 77.8644 130.034 76.604 131.619 76.604C132.098 76.604 132.124 76.837 132.124 77.0438C132.124 77.9005 131.839 78.1467 131.425 78.1467C129.932 78.1467 129.115 80.1982 129.115 81.6489V83.2835C129.115 84.2551 129.101 84.6063 128.412 84.6063C128.114 84.6063 127.428 84.5538 127.428 84.2157V77.0668C127.428 76.7419 127.973 76.7025 128.311 76.7025V76.709Z" fill="#001E55"></path><path d="M132.563 80.5756C132.563 77.5526 134.224 76.604 136.275 76.604C136.794 76.604 137.496 76.6697 137.857 76.7845C138.001 76.8371 138.09 76.9158 138.09 77.162C138.09 77.3819 138.024 78.1861 137.713 78.1861C137.686 78.1861 137.647 78.173 137.608 78.1598C137.362 78.1204 136.905 78.0285 136.466 78.0285C135.143 78.0285 134.286 78.8196 134.286 80.6117C134.286 82.5975 135.271 83.208 136.377 83.208C136.662 83.208 137.299 83.1161 137.611 83.0144C137.765 82.9619 137.805 82.9356 137.87 82.9356C138.182 82.9356 138.248 83.7398 138.248 83.9597C138.248 84.1402 138.116 84.2584 137.87 84.3634C137.467 84.5439 136.781 84.649 135.924 84.649C134.483 84.649 132.563 83.8579 132.563 80.5756Z" fill="#001E55"></path><path d="M139.078 80.6677C139.078 78.5768 139.79 76.6074 142.606 76.6074C144.618 76.6074 145.501 77.6052 145.501 79.23C145.501 81.1239 144.332 81.8263 142.504 81.8263C142.14 81.8263 141.792 81.7869 141.48 81.695C141.195 81.6162 140.962 81.4882 140.791 81.3701C140.896 82.4204 141.402 83.2377 143.128 83.2377C143.906 83.2377 144.503 83.0703 144.867 82.9653C145.074 82.8996 145.218 82.834 145.271 82.834C145.517 82.834 145.596 83.6382 145.596 83.8581C145.596 84.0255 145.53 84.1174 145.35 84.2224C144.933 84.4161 144.04 84.6491 142.819 84.6491C139.718 84.6491 139.081 82.5845 139.081 80.6644L139.078 80.6677ZM140.778 80.2016C141.156 80.3952 141.7 80.5396 142.232 80.5396C143.269 80.5396 143.814 80.0342 143.814 79.1775C143.814 78.3864 143.322 77.9958 142.544 77.9958C141.323 77.9958 140.883 78.9051 140.778 80.2016Z" fill="#001E55"></path><path d="M153.466 76.6074C154.45 76.6074 155.359 76.7748 155.839 76.9718C156.098 77.0637 156.111 77.1523 156.111 77.3098V79.2825H156.124V85.601C156.124 86.5758 156.124 86.9106 155.422 86.9106C155.123 86.9106 154.437 86.8712 154.437 86.5332V83.2115C154.244 83.4839 154.02 83.7301 153.748 83.9631C153.19 84.4555 152.567 84.6524 151.881 84.6524C150.076 84.6524 149.416 83.1196 149.416 81.2257C149.416 78.4357 150.791 76.6074 153.463 76.6074H153.466ZM154.437 79.7223V78.2289C154.191 78.137 153.827 78.0878 153.463 78.0878C151.828 78.0878 151.1 79.5156 151.1 81.2421C151.1 82.2399 151.398 83.1885 152.435 83.1885C153.604 83.1885 154.395 81.7607 154.434 79.7223H154.437Z" fill="#001E55"></path><path d="M160.209 83.0804C161.312 83.0804 162.208 81.6264 162.208 79.6406V77.0968C162.208 76.7587 162.753 76.7324 163.091 76.7324C163.856 76.7324 163.882 77.1099 163.882 78.4327V83.169C163.882 83.5596 163.908 83.9601 164.013 84.1045C164.259 84.5575 163.508 84.6494 163.091 84.6494C162.586 84.6494 162.208 84.4295 162.208 83.8058V82.9885C161.791 83.9109 160.859 84.6625 159.77 84.6625C158.263 84.6625 157.643 83.6253 157.643 81.9907V77.0968C157.643 76.7587 158.188 76.7324 158.526 76.7324C159.215 76.7324 159.33 77.1099 159.33 78.4327V81.6756C159.33 82.4666 159.484 83.0771 160.213 83.0771L160.209 83.0804Z" fill="#001E55"></path><path d="M165.116 80.6677C165.116 78.5768 165.828 76.6074 168.644 76.6074C170.656 76.6074 171.539 77.6052 171.539 79.23C171.539 81.1239 170.37 81.8263 168.542 81.8263C168.178 81.8263 167.83 81.7869 167.519 81.695C167.233 81.6162 167 81.4882 166.829 81.3701C166.934 82.4204 167.44 83.2377 169.166 83.2377C169.944 83.2377 170.541 83.0703 170.905 82.9653C171.112 82.8996 171.257 82.834 171.309 82.834C171.555 82.834 171.634 83.6382 171.634 83.8581C171.634 84.0255 171.568 84.1174 171.388 84.2224C170.971 84.4161 170.078 84.6491 168.858 84.6491C165.756 84.6491 165.119 82.5845 165.119 80.6644L165.116 80.6677ZM166.813 80.2016C167.19 80.3952 167.735 80.5396 168.267 80.5396C169.304 80.5396 169.849 80.0342 169.849 79.1775C169.849 78.3864 169.356 77.9958 168.579 77.9958C167.358 77.9958 166.918 78.9051 166.813 80.2016Z" fill="#001E55"></path><path d="M177.544 82.6929C177.544 83.1327 177.725 83.3165 178.037 83.3165C178.191 83.3165 178.27 83.3034 178.401 83.2771C178.506 83.2509 178.594 83.2246 178.634 83.2246C178.906 83.2246 178.919 83.9369 178.919 84.2487C178.919 84.4424 178.453 84.6524 177.492 84.6524C176.284 84.6524 175.857 84.0419 175.857 82.7454V74.5035C175.857 74.1654 176.648 74.1392 176.819 74.1392C177.495 74.1392 177.544 74.451 177.544 75.4488V82.6896V82.6929Z" fill="#001E55"></path><path d="M180.643 77.5654C180.488 77.9297 180.331 78.1496 179.852 78.1496C179.373 78.1496 179.228 78.0315 179.294 77.7591C179.333 77.5523 179.425 77.2011 179.54 76.735L179.865 75.5139C179.944 75.2021 180.137 75.0479 180.462 75.0479C181.112 75.0479 181.525 75.1004 181.512 75.3991C181.486 75.6846 181.407 75.9308 181.253 76.282L180.643 77.5654Z" fill="#001E55"></path><path d="M187.197 83.8088V83.5495C186.731 84.2355 185.795 84.6524 184.834 84.6524C183.055 84.6524 182.523 83.5495 182.523 82.3942C182.523 80.6283 183.807 79.7585 185.664 79.7585C186.261 79.7585 186.898 79.8372 187.207 79.8504V79.4105C187.207 78.3996 186.675 78.114 185.572 78.114C184.65 78.114 184.04 78.2683 183.626 78.3602C183.521 78.3864 183.472 78.3996 183.419 78.3996C183.081 78.3996 183.016 77.6217 183.016 77.3098C183.016 77.1162 183.029 76.998 183.327 76.893C183.626 76.8011 184.496 76.6074 185.753 76.6074C187.246 76.6074 188.88 76.9324 188.88 79.463V82.7585C188.88 83.2246 188.88 83.9007 188.999 84.1075C189.245 84.5605 188.493 84.6524 188.089 84.6524C187.584 84.6524 187.194 84.4325 187.194 83.8088H187.197ZM185.264 83.3657C186.498 83.3657 187.171 81.9773 187.197 81.2618V81.055C186.757 81.0024 186.432 80.9762 186.12 80.9762C184.991 80.9762 184.227 81.5079 184.227 82.3515C184.227 82.9226 184.565 83.3624 185.264 83.3624V83.3657Z" fill="#001E55"></path><path d="M192.904 83.0804C194.007 83.0804 194.902 81.6264 194.902 79.6406V77.0968C194.902 76.7587 195.447 76.7324 195.785 76.7324C196.55 76.7324 196.576 77.1099 196.576 78.4327V83.169C196.576 83.5596 196.602 83.9601 196.707 84.1045C196.954 84.5575 196.202 84.6494 195.785 84.6494C195.28 84.6494 194.902 84.4295 194.902 83.8058V82.9885C194.486 83.9109 193.554 84.6625 192.464 84.6625C190.958 84.6625 190.337 83.6253 190.337 81.9907V77.0968C190.337 76.7587 190.882 76.7324 191.22 76.7324C191.909 76.7324 192.024 77.1099 192.024 78.4327V81.6756C192.024 82.4666 192.179 83.0771 192.907 83.0771L192.904 83.0804Z" fill="#001E55"></path><path d="M198.598 76.7355V75.9576C198.598 75.544 198.817 75.2191 199.388 74.9598C199.635 74.8416 199.815 74.7661 199.946 74.7661C200.179 74.7661 200.271 74.9992 200.271 75.5965V76.7388H201.646C201.893 76.7388 202.139 76.7913 202.139 77.1162C202.139 77.9073 201.998 78.1009 201.502 78.1009H200.268V82.4861C200.268 83.0573 200.54 83.3166 200.993 83.3166C201.318 83.3166 201.512 83.264 201.863 83.1492C201.955 83.1098 202.043 83.0835 202.109 83.0835C202.303 83.0835 202.316 83.7826 202.316 84.1076C202.316 84.3669 201.732 84.6525 200.616 84.6525C199.109 84.6525 198.591 83.9763 198.591 82.5386V78.1009H197.994C197.603 78.1009 197.488 78.0222 197.488 77.7235C197.488 77.2311 197.554 76.7388 198.138 76.7388H198.591L198.598 76.7355Z" fill="#001E55"></path><path d="M204.138 74.0898C204.59 74.0898 204.981 74.3623 204.981 74.9334C204.981 75.5964 204.489 75.882 203.983 75.882C203.53 75.882 203.179 75.6358 203.179 75.0778C203.179 74.4279 203.632 74.0931 204.141 74.0931L204.138 74.0898ZM204.968 82.6928C204.968 83.1326 205.148 83.3165 205.46 83.3165C205.614 83.3165 205.693 83.3033 205.824 83.2771C205.929 83.2508 206.018 83.2246 206.057 83.2246C206.33 83.2246 206.343 83.9368 206.343 84.2486C206.343 84.4423 205.877 84.6524 204.915 84.6524C203.708 84.6524 203.281 84.0419 203.281 82.7453V77.0997C203.281 76.7617 203.826 76.7354 204.164 76.7354C204.928 76.7354 204.968 77.1523 204.968 78.5768V82.6895V82.6928Z" fill="#001E55"></path><path d="M210.157 78.0583C208.975 78.0583 208.588 78.2388 208.588 78.8231C208.588 79.5485 209.339 79.6404 210.196 79.9259C211.207 80.2509 212.221 80.7432 212.221 82.2498C212.221 84.1175 210.951 84.6492 209.133 84.6492C207.849 84.6492 207.108 84.4949 206.835 84.2717C206.704 84.1798 206.655 84.0781 206.655 83.9205C206.655 83.7006 206.707 82.9588 206.901 82.9588C206.94 82.9588 207.045 82.9851 207.318 83.0376C207.876 83.1557 208.342 83.1918 208.952 83.1918C209.641 83.1918 210.445 83.0376 210.445 82.2826C210.445 81.5277 209.615 81.334 208.693 81.0354C207.718 80.7235 206.825 80.3986 206.825 78.8296C206.825 77.1556 207.823 76.5977 209.796 76.5977C210.898 76.5977 212.001 76.7519 212.001 77.1425C212.001 77.2476 211.975 78.2191 211.715 78.2191C211.663 78.2191 211.597 78.1929 211.289 78.1404C210.744 78.0616 210.304 78.0484 210.16 78.0484L210.157 78.0583Z" fill="#001E55"></path><path d="M216.982 78.1367C216.244 78.1367 215.348 79.2264 215.128 80.861V83.2867C215.128 84.2582 215.115 84.6094 214.425 84.6094C214.127 84.6094 213.441 84.5569 213.441 84.2189V77.07C213.441 76.745 213.986 76.7056 214.324 76.7056C214.974 76.7056 215.036 77.1093 215.049 78.3533C215.528 77.3686 216.332 76.6006 217.448 76.6006C218.41 76.6006 219.201 77.0142 219.447 78.3402C219.978 77.3555 220.848 76.6006 222.029 76.6006C223.145 76.6006 223.976 77.1586 223.976 79.1181V83.2834C223.976 84.255 223.976 84.6062 223.277 84.6062C222.991 84.6062 222.302 84.5536 222.302 84.2156V79.4923C222.302 78.5076 222.016 78.1301 221.432 78.1301C220.628 78.1301 219.653 79.4135 219.539 81.2713V83.2834C219.539 84.255 219.525 84.6062 218.84 84.6062C218.541 84.6062 217.855 84.5536 217.855 84.2156V79.4923C217.855 78.5076 217.569 78.1301 216.985 78.1301L216.982 78.1367Z" fill="#001E55"></path><path d="M225.194 80.6677C225.194 78.5768 225.906 76.6074 228.722 76.6074C230.734 76.6074 231.616 77.6052 231.616 79.23C231.616 81.1239 230.448 81.8263 228.62 81.8263C228.256 81.8263 227.908 81.7869 227.596 81.695C227.311 81.6162 227.078 81.4882 226.907 81.3701C227.012 82.4204 227.517 83.2377 229.244 83.2377C230.021 83.2377 230.619 83.0703 230.983 82.9653C231.19 82.8996 231.334 82.834 231.387 82.834C231.633 82.834 231.712 83.6382 231.712 83.8581C231.712 84.0255 231.646 84.1174 231.465 84.2224C231.049 84.4161 230.156 84.6491 228.935 84.6491C225.834 84.6491 225.197 82.5845 225.197 80.6644L225.194 80.6677ZM226.894 80.2016C227.271 80.3952 227.816 80.5396 228.348 80.5396C229.385 80.5396 229.93 80.0342 229.93 79.1775C229.93 78.3864 229.437 77.9958 228.659 77.9958C227.439 77.9958 226.999 78.9051 226.894 80.2016Z" fill="#001E55"></path><path d="M113.703 96.3042V98.1226C113.703 99.0942 113.69 99.4454 113.001 99.4454C112.702 99.4454 112.016 99.3929 112.016 99.0548V91.9289C112.016 91.5908 112.561 91.5645 112.899 91.5645C113.575 91.5645 113.624 91.9683 113.624 93.291C114.002 92.2801 114.986 91.4365 116.194 91.4365C117.727 91.4365 118.347 92.4737 118.347 94.0952V98.1193C118.347 99.0909 118.347 99.4421 117.644 99.4421C117.346 99.4421 116.66 99.3896 116.66 99.0515V94.3939C116.66 93.616 116.493 92.9924 115.751 92.9924C114.648 92.9924 113.739 94.3939 113.7 96.3009L113.703 96.3042Z" fill="#001E55"></path><path d="M119.515 95.4997C119.515 93.4088 120.227 91.4395 123.043 91.4395C125.054 91.4395 125.937 92.4373 125.937 94.062C125.937 95.9559 124.769 96.6583 122.941 96.6583C122.577 96.6583 122.229 96.619 121.917 96.5271C121.631 96.4483 121.398 96.3203 121.228 96.2021C121.333 97.2524 121.838 98.0697 123.564 98.0697C124.342 98.0697 124.94 97.9023 125.304 97.7973C125.511 97.7317 125.655 97.666 125.707 97.666C125.954 97.666 126.032 98.4702 126.032 98.6901C126.032 98.8575 125.967 98.9494 125.786 99.0544C125.369 99.2481 124.477 99.4811 123.256 99.4811C120.155 99.4811 119.518 97.4166 119.518 95.4964L119.515 95.4997ZM121.211 95.0336C121.589 95.2273 122.134 95.3717 122.665 95.3717C123.702 95.3717 124.247 94.8662 124.247 94.0095C124.247 93.2185 123.755 92.8279 122.977 92.8279C121.756 92.8279 121.316 93.7371 121.211 95.0336Z" fill="#001E55"></path><path d="M133.046 99.4846C132.642 99.4846 132.268 99.3533 131.943 99.1334V100.43C131.943 101.405 131.93 101.74 131.241 101.74C130.942 101.74 130.256 101.7 130.256 101.362V91.9025C130.256 91.5775 130.801 91.5381 131.139 91.5381C131.776 91.5381 131.851 91.9287 131.864 93.1202C132.111 92.7165 132.409 92.3554 132.734 92.0961C133.292 91.6563 133.955 91.4331 134.693 91.4331C136.354 91.4331 136.964 92.7953 136.964 94.315C136.964 97.0656 135.589 99.4814 133.046 99.4814V99.4846ZM131.943 96.3041V96.6028C131.969 97.5776 132.334 98.0437 133.02 98.0437C134.267 98.0437 135.199 96.5502 135.199 94.5907C135.199 93.734 134.992 92.943 134.162 92.943C132.967 92.943 131.983 94.4364 131.943 96.3041Z" fill="#001E55"></path><path d="M139.065 91.5416C139.754 91.5416 139.79 91.9683 139.79 93.3961V93.5011C140.089 92.6969 140.788 91.4365 142.373 91.4365C142.852 91.4365 142.878 91.6696 142.878 91.8764C142.878 92.733 142.593 92.9792 142.179 92.9792C140.686 92.9792 139.869 95.0307 139.869 96.4814V98.116C139.869 99.0876 139.856 99.4388 139.167 99.4388C138.868 99.4388 138.182 99.3863 138.182 99.0482V91.8993C138.182 91.5744 138.727 91.535 139.065 91.535V91.5416Z" fill="#001E55"></path><path d="M143.357 95.4997C143.357 93.4088 144.07 91.4395 146.885 91.4395C148.897 91.4395 149.78 92.4373 149.78 94.062C149.78 95.9559 148.612 96.6583 146.784 96.6583C146.419 96.6583 146.072 96.619 145.76 96.5271C145.474 96.4483 145.241 96.3203 145.071 96.2021C145.176 97.2524 145.681 98.0697 147.407 98.0697C148.185 98.0697 148.782 97.9023 149.147 97.7973C149.353 97.7317 149.498 97.666 149.55 97.666C149.796 97.666 149.875 98.4702 149.875 98.6901C149.875 98.8575 149.81 98.9494 149.629 99.0544C149.212 99.2481 148.32 99.4811 147.099 99.4811C143.997 99.4811 143.361 97.4166 143.361 95.4964L143.357 95.4997ZM145.057 95.0336C145.435 95.2273 145.98 95.3717 146.511 95.3717C147.548 95.3717 148.093 94.8662 148.093 94.0095C148.093 93.2185 147.601 92.8279 146.823 92.8279C145.602 92.8279 145.162 93.7371 145.057 95.0336Z" fill="#001E55"></path><path d="M152.816 96.3042V98.1226C152.816 99.0942 152.803 99.4454 152.113 99.4454C151.815 99.4454 151.129 99.3929 151.129 99.0548V91.9289C151.129 91.5908 151.674 91.5645 152.012 91.5645C152.688 91.5645 152.737 91.9683 152.737 93.291C153.114 92.2801 154.099 91.4365 155.307 91.4365C156.839 91.4365 157.46 92.4737 157.46 94.0952V98.1193C157.46 99.0909 157.46 99.4421 156.757 99.4421C156.459 99.4421 155.773 99.3896 155.773 99.0515V94.3939C155.773 93.616 155.605 92.9924 154.864 92.9924C153.761 92.9924 152.852 94.3939 152.812 96.3009L152.816 96.3042Z" fill="#001E55"></path><path d="M165.49 98.9401C165.736 99.3931 164.985 99.485 164.568 99.485C164.063 99.485 163.685 99.265 163.685 98.6414V97.8635C163.478 98.2016 163.232 98.5528 162.921 98.8121C162.376 99.265 161.752 99.4981 161.066 99.4981C159.274 99.4981 158.628 98.0309 158.628 96.2552C158.628 93.4652 160.016 91.44 162.481 91.44C162.898 91.44 163.311 91.5188 163.689 91.6205V89.336C163.689 88.9979 164.479 88.9717 164.65 88.9717C165.326 88.9717 165.362 89.2835 165.362 90.2813V97.5878C165.362 98.0539 165.362 98.73 165.494 98.9368L165.49 98.9401ZM163.689 94.0855V93.1008C163.456 93.0089 163.091 92.9564 162.717 92.9564C161.162 92.9564 160.394 94.463 160.394 96.0713C160.394 97.0954 160.666 97.9784 161.523 97.9784C162.743 97.9784 163.689 96.16 163.689 94.0855Z" fill="#001E55"></path><path d="M172.743 99.4846C172.34 99.4846 171.965 99.3533 171.64 99.1334V100.43C171.64 101.405 171.627 101.74 170.938 101.74C170.64 101.74 169.954 101.7 169.954 101.362V91.9025C169.954 91.5775 170.498 91.5381 170.836 91.5381C171.473 91.5381 171.549 91.9287 171.562 93.1202C171.808 92.7165 172.106 92.3554 172.431 92.0961C172.989 91.6563 173.652 91.4331 174.391 91.4331C176.051 91.4331 176.662 92.7953 176.662 94.315C176.662 97.0656 175.287 99.4814 172.743 99.4814V99.4846ZM171.64 96.3041V96.6028C171.667 97.5776 172.031 98.0437 172.717 98.0437C173.964 98.0437 174.896 96.5502 174.896 94.5907C174.896 93.734 174.689 92.943 173.859 92.943C172.664 92.943 171.68 94.4364 171.64 96.3041Z" fill="#001E55"></path><path d="M182.267 98.6409V98.3816C181.801 99.0676 180.866 99.4844 179.904 99.4844C178.125 99.4844 177.594 98.3816 177.594 97.2262C177.594 95.4603 178.877 94.5905 180.734 94.5905C181.332 94.5905 181.968 94.6693 182.277 94.6824V94.2426C182.277 93.2316 181.745 92.946 180.643 92.946C179.72 92.946 179.11 93.1003 178.696 93.1922C178.591 93.2185 178.542 93.2316 178.49 93.2316C178.152 93.2316 178.086 92.4537 178.086 92.1419C178.086 91.9482 178.099 91.83 178.398 91.725C178.696 91.6331 179.566 91.4395 180.823 91.4395C182.316 91.4395 183.951 91.7644 183.951 94.2951V97.5905C183.951 98.0566 183.951 98.7328 184.069 98.9396C184.315 99.3925 183.563 99.4844 183.16 99.4844C182.654 99.4844 182.264 99.2645 182.264 98.6409H182.267ZM180.331 98.1978C181.565 98.1978 182.238 96.8093 182.264 96.0938V95.887C181.824 95.8345 181.499 95.8082 181.187 95.8082C180.058 95.8082 179.294 96.34 179.294 97.1835C179.294 97.7546 179.632 98.1945 180.331 98.1945V98.1978Z" fill="#001E55"></path><path d="M188.519 92.8913C187.337 92.8913 186.95 93.0718 186.95 93.6561C186.95 94.3815 187.702 94.4734 188.558 94.7589C189.569 95.0839 190.583 95.5762 190.583 97.0828C190.583 98.9505 189.313 99.4822 187.495 99.4822C186.212 99.4822 185.47 99.3279 185.198 99.1047C185.066 99.0128 185.017 98.9111 185.017 98.7535C185.017 98.5336 185.07 97.7918 185.263 97.7918C185.303 97.7918 185.408 97.8181 185.68 97.8706C186.238 97.9887 186.704 98.0248 187.314 98.0248C188.004 98.0248 188.808 97.8706 188.808 97.1156C188.808 96.3607 187.977 96.1671 187.055 95.8684C186.08 95.5565 185.188 95.2316 185.188 93.6626C185.188 91.9887 186.185 91.4307 188.158 91.4307C189.261 91.4307 190.363 91.5849 190.363 91.9755C190.363 92.0806 190.337 93.0521 190.078 93.0521C190.025 93.0521 189.96 93.0259 189.651 92.9734C189.106 92.8946 188.666 92.8814 188.522 92.8814L188.519 92.8913Z" fill="#001E55"></path><path d="M201.285 98.9401C201.531 99.3931 200.78 99.485 200.363 99.485C199.858 99.485 199.48 99.265 199.48 98.6414V97.8635C199.273 98.2016 199.027 98.5528 198.716 98.8121C198.171 99.265 197.547 99.4981 196.861 99.4981C195.069 99.4981 194.423 98.0309 194.423 96.2552C194.423 93.4652 195.811 91.44 198.276 91.44C198.693 91.44 199.106 91.5188 199.483 91.6205V89.336C199.483 88.9979 200.274 88.9717 200.445 88.9717C201.121 88.9717 201.157 89.2835 201.157 90.2813V97.5878C201.157 98.0539 201.157 98.73 201.288 98.9368L201.285 98.9401ZM199.48 94.0855V93.1008C199.247 93.0089 198.883 92.9564 198.509 92.9564C196.953 92.9564 196.185 94.463 196.185 96.0713C196.185 97.0954 196.458 97.9784 197.314 97.9784C198.535 97.9784 199.48 96.16 199.48 94.0855Z" fill="#001E55"></path><path d="M202.424 95.4997C202.424 93.4088 203.136 91.4395 205.952 91.4395C207.964 91.4395 208.847 92.4373 208.847 94.062C208.847 95.9559 207.679 96.6583 205.851 96.6583C205.486 96.6583 205.138 96.619 204.827 96.5271C204.541 96.4483 204.308 96.3203 204.137 96.2021C204.242 97.2524 204.748 98.0697 206.474 98.0697C207.252 98.0697 207.849 97.9023 208.213 97.7973C208.42 97.7317 208.565 97.666 208.617 97.666C208.863 97.666 208.942 98.4702 208.942 98.6901C208.942 98.8575 208.876 98.9494 208.696 99.0544C208.279 99.2481 207.386 99.4811 206.166 99.4811C203.064 99.4811 202.428 97.4166 202.428 95.4964L202.424 95.4997ZM204.124 95.0336C204.502 95.2273 205.047 95.3717 205.578 95.3717C206.615 95.3717 207.16 94.8662 207.16 94.0095C207.16 93.2185 206.668 92.8279 205.89 92.8279C204.669 92.8279 204.229 93.7371 204.124 95.0336Z" fill="#001E55"></path><path d="M215.955 99.4846C215.551 99.4846 215.177 99.3533 214.852 99.1334V100.43C214.852 101.405 214.839 101.74 214.15 101.74C213.851 101.74 213.165 101.7 213.165 101.362V91.9025C213.165 91.5775 213.71 91.5381 214.048 91.5381C214.685 91.5381 214.76 91.9287 214.773 93.1202C215.019 92.7165 215.318 92.3554 215.643 92.0961C216.201 91.6563 216.864 91.4331 217.602 91.4331C219.263 91.4331 219.873 92.7953 219.873 94.315C219.873 97.0656 218.498 99.4814 215.955 99.4814V99.4846ZM214.852 96.3041V96.6028C214.878 97.5776 215.242 98.0437 215.928 98.0437C217.175 98.0437 218.107 96.5502 218.107 94.5907C218.107 93.734 217.901 92.943 217.07 92.943C215.876 92.943 214.891 94.4364 214.852 96.3041Z" fill="#001E55"></path><path d="M225.479 98.6409V98.3816C225.013 99.0676 224.078 99.4844 223.116 99.4844C221.337 99.4844 220.806 98.3816 220.806 97.2262C220.806 95.4603 222.089 94.5905 223.946 94.5905C224.544 94.5905 225.18 94.6693 225.489 94.6824V94.2426C225.489 93.2316 224.957 92.946 223.854 92.946C222.932 92.946 222.322 93.1003 221.908 93.1922C221.803 93.2185 221.754 93.2316 221.702 93.2316C221.364 93.2316 221.298 92.4537 221.298 92.1419C221.298 91.9482 221.311 91.83 221.61 91.725C221.908 91.6331 222.778 91.4395 224.035 91.4395C225.528 91.4395 227.163 91.7644 227.163 94.2951V97.5905C227.163 98.0566 227.163 98.7328 227.281 98.9396C227.527 99.3925 226.775 99.4844 226.372 99.4844C225.866 99.4844 225.476 99.2645 225.476 98.6409H225.479ZM223.546 98.1978C224.78 98.1978 225.453 96.8093 225.479 96.0938V95.887C225.039 95.8345 224.714 95.8082 224.403 95.8082C223.274 95.8082 222.509 96.34 222.509 97.1835C222.509 97.7546 222.847 98.1945 223.546 98.1945V98.1978Z" fill="#001E55"></path><path d="M231.186 97.9125C232.289 97.9125 233.185 96.4584 233.185 94.4726V91.9288C233.185 91.5907 233.729 91.5645 234.067 91.5645C234.832 91.5645 234.858 91.9419 234.858 93.2647V98.0011C234.858 98.3917 234.885 98.7921 234.99 98.9365C235.236 99.3895 234.484 99.4814 234.067 99.4814C233.562 99.4814 233.185 99.2615 233.185 98.6379V97.8206C232.768 98.7429 231.836 99.4945 230.746 99.4945C229.24 99.4945 228.62 98.4573 228.62 96.8227V91.9288C228.62 91.5907 229.164 91.5645 229.502 91.5645C230.192 91.5645 230.306 91.9419 230.306 93.2647V96.5076C230.306 97.2987 230.461 97.9092 231.189 97.9092L231.186 97.9125Z" fill="#001E55"></path><path d="M239.503 92.8913C238.321 92.8913 237.934 93.0718 237.934 93.6561C237.934 94.3815 238.686 94.4734 239.542 94.7589C240.553 95.0839 241.567 95.5762 241.567 97.0828C241.567 98.9505 240.297 99.4822 238.479 99.4822C237.196 99.4822 236.454 99.3279 236.181 99.1047C236.05 99.0128 236.001 98.9111 236.001 98.7535C236.001 98.5336 236.053 97.7918 236.247 97.7918C236.286 97.7918 236.392 97.8181 236.664 97.8706C237.222 97.9887 237.688 98.0248 238.298 98.0248C238.987 98.0248 239.791 97.8706 239.791 97.1156C239.791 96.3607 238.961 96.1671 238.039 95.8684C237.064 95.5565 236.172 95.2316 236.172 93.6626C236.172 91.9887 237.169 91.4307 239.142 91.4307C240.244 91.4307 241.347 91.5849 241.347 91.9755C241.347 92.0806 241.321 93.0521 241.062 93.0521C241.009 93.0521 240.943 93.0259 240.635 92.9734C240.09 92.8946 239.65 92.8814 239.506 92.8814L239.503 92.8913Z" fill="#001E55"></path><path d="M242.437 95.4997C242.437 93.4088 243.149 91.4395 245.965 91.4395C247.976 91.4395 248.859 92.4373 248.859 94.062C248.859 95.9559 247.691 96.6583 245.863 96.6583C245.498 96.6583 245.151 96.619 244.839 96.5271C244.553 96.4483 244.32 96.3203 244.15 96.2021C244.255 97.2524 244.76 98.0697 246.486 98.0697C247.264 98.0697 247.861 97.9023 248.226 97.7973C248.432 97.7317 248.577 97.666 248.629 97.666C248.876 97.666 248.954 98.4702 248.954 98.6901C248.954 98.8575 248.889 98.9494 248.708 99.0544C248.291 99.2481 247.399 99.4811 246.178 99.4811C243.076 99.4811 242.44 97.4166 242.44 95.4964L242.437 95.4997ZM244.133 95.0336C244.511 95.2273 245.055 95.3717 245.587 95.3717C246.624 95.3717 247.169 94.8662 247.169 94.0095C247.169 93.2185 246.677 92.8279 245.899 92.8279C244.678 92.8279 244.238 93.7371 244.133 95.0336Z" fill="#001E55"></path><path d="M1.38184 31.5672C1.38184 16.1829 13.8528 3.71338 29.2348 3.71338C44.6168 3.71338 57.0878 16.1829 57.0878 31.5672C57.0878 46.9514 44.6201 59.4242 29.2348 59.4242C13.8528 59.4242 1.38184 46.9514 1.38184 31.5672Z" fill="#D2E6FF"></path><path d="M68.2426 59.4242C83.6246 59.4242 96.0956 46.9514 96.0956 31.5672C96.0956 16.1829 83.6246 3.71338 68.2426 3.71338C52.8606 3.71338 40.3896 16.1829 40.3896 31.5672C40.3896 46.9514 52.8606 59.4242 68.2426 59.4242Z" fill="#FFEBB4"></path><path d="M39.799 47.6633C39.356 47.0429 38.4929 46.8985 37.8693 47.3416C28.8541 53.775 20.9908 47.6534 20.6626 47.3909C20.0686 46.9116 19.1989 47.0035 18.7165 47.5976C18.2373 48.1917 18.3292 49.0616 18.9233 49.5441C18.9889 49.5966 23.3176 53.0069 29.3792 53.0069C32.4149 53.0069 35.8838 52.1502 39.4708 49.5933C40.0911 49.1502 40.2355 48.2869 39.7925 47.6633H39.799Z" fill="#001E55"></path><path d="M24.1411 25.866C24.7023 26.3846 25.5753 26.3517 26.0938 25.7905C26.6123 25.2292 26.5762 24.3528 26.0183 23.8342C23.8425 21.8221 18.2502 19.2225 12.6711 23.7784C12.0803 24.2609 11.9917 25.134 12.4742 25.7248C12.7466 26.0596 13.1437 26.2336 13.5473 26.2336C13.8558 26.2336 14.1643 26.1318 14.4203 25.9218C19.5104 21.7663 23.9606 25.7018 24.1411 25.866Z" fill="#001E55"></path><path d="M68.2426 2.32812C60.7534 2.32812 53.9173 5.16077 48.7386 9.80525C43.5599 5.15749 36.7238 2.32812 29.2346 2.32812C13.1142 2.32812 0 15.4443 0 31.567C0 47.6898 13.1142 60.806 29.2346 60.806C36.7238 60.806 43.5599 57.9733 48.7386 53.3288C53.9173 57.9766 60.7534 60.806 68.2426 60.806C84.363 60.806 97.4772 47.6898 97.4772 31.567C97.4772 15.4443 84.363 2.32812 68.2426 2.32812ZM48.7386 49.4426C44.4164 44.7292 41.7745 38.4534 41.7745 31.567C41.7745 24.6807 44.4164 18.4049 48.7386 13.6915C53.0608 18.4049 55.7027 24.6807 55.7027 31.567C55.7027 38.4534 53.0608 44.7292 48.7386 49.4426ZM2.76659 31.567C2.76659 16.9706 14.6403 5.09512 29.2346 5.09512C35.9526 5.09512 42.0896 7.61595 46.7629 11.755C41.9518 16.9673 39.0079 23.9291 39.0079 31.567C39.0079 39.205 41.9518 46.1668 46.7629 51.3792C42.0896 55.5182 35.9526 58.039 29.2346 58.039C14.6403 58.039 2.76659 46.1635 2.76659 31.567ZM68.2426 58.039C61.5246 58.039 55.3876 55.5182 50.7143 51.3792C55.5254 46.1668 58.4693 39.205 58.4693 31.567C58.4693 23.9291 55.5254 16.9673 50.7143 11.755C55.3876 7.61595 61.5246 5.09512 68.2426 5.09512C74.9605 5.09512 81.2321 7.66847 85.9218 11.8863C82.4759 10.8819 77.4448 10.7243 72.6632 15.3983C66.9101 21.0177 68.6265 32.5025 71.0814 41.1481C71.2553 41.7554 71.8067 42.1525 72.4105 42.1525C72.5352 42.1525 72.6632 42.1361 72.7879 42.1C73.5231 41.8899 73.9497 41.1252 73.7397 40.3932C71.8985 33.9074 69.5619 22.2912 74.5929 17.3776C82.0493 10.0941 90.1587 17.1051 90.5164 17.4202C90.5624 17.4629 90.6149 17.4925 90.6641 17.5286C93.2239 21.6019 94.7106 26.4138 94.7106 31.5703C94.7106 46.1668 82.8369 58.0423 68.2426 58.0423V58.039Z" fill="#001E55"></path><path d="M78.2718 47.3418C69.2631 53.7686 61.4064 47.6635 61.0651 47.391C60.4711 46.9118 59.6014 47.007 59.1223 47.6011C58.6431 48.1952 58.735 49.065 59.329 49.5475C59.3946 49.6 63.7201 53.0104 69.785 53.0104C72.8207 53.0104 76.2896 52.1537 79.8766 49.5967C80.4969 49.1536 80.6413 48.2904 80.1982 47.6667C79.7552 47.0464 78.8921 46.902 78.2685 47.3451L78.2718 47.3418Z" fill="#001E55"></path><path d="M86.8935 21.5531C84.7603 23.296 82.5024 23.8507 80.192 23.2008C78.3936 22.6953 77.1957 21.6286 77.1695 21.6056C76.6083 21.0903 75.7353 21.1264 75.22 21.6877C74.7015 22.2489 74.7376 23.1253 75.2955 23.6406C76.582 24.8321 79.0631 26.2271 82.0299 26.2271C84.081 26.2271 86.3619 25.5608 88.6428 23.6964C89.2335 23.2139 89.3221 22.3408 88.8397 21.75C88.3572 21.1592 87.4843 21.0706 86.8935 21.5531Z" fill="#001E55"></path></svg> 