<?xml version='1.0' encoding='utf-8'?>
<svg xmlns="http://www.w3.org/2000/svg" viewBox="0 0 280 102" fill="none"><path d="M117.854 14.6663H125.324C126.699 14.6663 127.05 15.6871 127.05 16.8852C127.05 18.9629 126.239 19.8819 123.913 19.8819H117.851V24.8153C117.851 28.2683 117.851 29.5714 115.419 29.5714C114.399 29.5714 111.931 29.4302 111.931 28.2683V6.10275C111.931 5.32812 112.108 4.2351 113.693 3.98893C115.209 3.74276 117.956 3.49658 121.021 3.49658C123.558 3.49658 127.434 3.70665 128.386 3.84779C129.479 3.98893 130.148 4.30732 130.148 5.22309C130.148 5.96161 129.902 8.57105 128.668 8.57105C128.35 8.57105 127.821 8.53495 127.293 8.50212C126.131 8.36098 124.72 8.29206 123.24 8.29206C121.55 8.29206 119.433 8.32816 117.848 8.57434V14.6696L117.854 14.6663Z" fill="#001E55" /><path d="M140.614 7.72412C148.189 7.72412 150.584 13.1498 150.584 18.6477C150.584 24.1456 148.189 29.5713 140.614 29.5713C133.04 29.5713 130.713 24.1095 130.713 18.6477C130.713 13.1859 133.004 7.72412 140.614 7.72412ZM136.492 18.6838C136.492 21.6444 137.621 24.6379 140.614 24.6379C143.607 24.6379 144.808 21.6412 144.808 18.6838C144.808 15.7264 143.679 12.6575 140.614 12.6575C137.549 12.6575 136.492 15.6181 136.492 18.6838Z" fill="#001E55" /><path d="M155.976 29.4662C154.989 29.4662 152.593 29.3251 152.593 28.196V9.23727C152.593 8.14426 154.496 8.07533 155.622 8.07533C157.525 8.07533 157.982 9.0272 158.09 11.7417C159.219 9.3817 161.756 7.72412 164.713 7.72412C168.976 7.72412 170.984 10.4386 170.984 15.2997V25.6259C170.948 28.4093 170.807 29.4662 168.552 29.4662C167.601 29.4662 165.169 29.3251 165.169 28.196V16.3566C165.169 14.4168 164.745 13.1137 163.091 13.1137C160.272 13.1137 158.405 16.9901 158.405 20.9716V25.0252C158.405 28.2682 158.405 29.4662 155.973 29.4662H155.976Z" fill="#001E55" /><path d="M183.495 7.72439C184.552 7.72439 185.608 7.90164 186.596 8.18392V2.19368C186.596 1.10067 189.415 1.03174 189.98 1.03174C192.307 1.03174 192.412 2.12475 192.412 5.33158V24.113C192.412 25.3472 192.412 27.0737 192.799 27.7433C193.609 29.2597 191 29.5748 189.629 29.5748C187.938 29.5748 186.599 28.9052 186.599 26.7914V25.9807C186.107 26.6503 185.543 27.2837 184.909 27.8122C183.324 29.0464 181.598 29.6076 179.799 29.6076C174.903 29.6076 172.927 25.7312 172.927 20.6567C172.927 12.9761 176.872 7.72439 183.498 7.72439H183.495ZM186.596 14.9127V13.2912C185.996 13.0811 185.257 12.94 184.341 12.94C180.853 12.94 179.022 16.3241 179.022 20.0594C179.022 22.4916 179.691 24.3953 181.49 24.3953C184.555 24.3953 186.599 19.2847 186.599 14.916L186.596 14.9127Z" fill="#001E55" /><path d="M213.409 27.7397C214.256 29.2562 211.647 29.5713 210.272 29.5713C208.791 29.5713 207.594 29.0789 207.311 27.5625C206.008 28.8656 203.613 29.5713 201.427 29.5713C196.284 29.5713 194.804 26.4366 194.804 23.1576C194.804 18.2243 198.188 15.9693 203.33 15.9693C205.129 15.9693 206.819 16.2155 207.275 16.2155V15.5459C207.275 13.5732 206.077 12.9036 203.222 12.9036C200.616 12.9036 199.064 13.327 197.866 13.6093C197.62 13.6783 197.443 13.7144 197.266 13.7144C196.104 13.7144 195.927 10.9309 195.927 9.94297C195.927 9.27338 195.963 8.88606 196.983 8.53486C197.794 8.25258 200.049 7.72412 203.855 7.72412C208.05 7.72412 213.051 8.49875 213.051 15.7592V24.2178C213.051 25.4519 213.051 27.1062 213.402 27.743L213.409 27.7397ZM202.979 25.1664C205.339 25.1664 207.101 22.8064 207.242 21.0077V20.3381C206.432 20.1969 205.762 20.128 204.952 20.128C202.238 20.128 200.689 21.3261 200.689 23.0165C200.689 24.2867 201.535 25.1664 202.979 25.1664Z" fill="#001E55" /><path d="M217.215 8.0752V6.52595C217.215 5.25897 218.062 4.27099 219.893 3.35522C220.773 2.8957 221.409 2.6167 221.902 2.6167C222.712 2.6167 223.031 3.42743 223.031 5.50514V8.07848H226.306C227.116 8.07848 227.996 8.21962 227.996 9.34874C227.996 12.0632 227.504 12.8017 226.092 12.8017H223.027V23.1608C223.027 24.4638 223.697 24.9595 224.717 24.9595C225.492 24.9595 225.987 24.8544 226.972 24.536C227.254 24.431 227.5 24.3588 227.678 24.3588C228.347 24.3588 228.383 26.8599 228.383 27.884C228.383 28.7309 226.834 29.5744 223.31 29.5744C218.728 29.5744 217.215 27.6017 217.215 23.338V12.8017H216.053C214.678 12.8017 214.291 12.5556 214.291 11.5315C214.291 9.84109 214.501 8.07848 216.194 8.07848H217.215V8.0752Z" fill="#001E55" /><path d="M232.965 0.5C234.55 0.5 235.889 1.41577 235.889 3.31951C235.889 5.43333 234.232 6.3852 232.542 6.3852C230.993 6.3852 229.723 5.57447 229.723 3.67072C229.723 1.62584 231.239 0.5 232.965 0.5ZM235.889 23.4401C235.889 24.5693 236.349 24.9566 237.087 24.9566C237.438 24.9566 237.652 24.9566 237.967 24.8515C238.285 24.7826 238.495 24.7104 238.636 24.7104C239.552 24.7104 239.624 27.2115 239.624 28.2684C239.624 28.9019 238.285 29.5715 235.115 29.5715C231.344 29.5715 230.077 27.6678 230.077 23.6174V9.24082C230.077 8.14781 231.981 8.07888 233.106 8.07888C235.784 8.07888 235.889 9.59531 235.889 14.3153V23.4434V23.4401Z" fill="#001E55" /><path d="M249.63 7.72412C257.204 7.72412 259.6 13.1498 259.6 18.6477C259.6 24.1456 257.204 29.5713 249.63 29.5713C242.055 29.5713 239.729 24.1095 239.729 18.6477C239.729 13.1859 242.019 7.72412 249.63 7.72412ZM245.508 18.6838C245.508 21.6444 246.637 24.6379 249.63 24.6379C252.623 24.6379 253.824 21.6412 253.824 18.6838C253.824 15.7264 252.695 12.6575 249.63 12.6575C246.565 12.6575 245.508 15.6181 245.508 18.6838Z" fill="#001E55" /><path d="M264.992 29.4662C264.005 29.4662 261.609 29.3251 261.609 28.196V9.23727C261.609 8.14426 263.512 8.07533 264.638 8.07533C266.541 8.07533 266.998 9.0272 267.106 11.7417C268.235 9.3817 270.772 7.72412 273.729 7.72412C277.992 7.72412 280 10.4386 280 15.2997V25.6259C279.964 28.4093 279.823 29.4662 277.568 29.4662C276.617 29.4662 274.185 29.3251 274.185 28.196V16.3566C274.185 14.4168 273.762 13.1137 272.107 13.1137C269.288 13.1137 267.421 16.9901 267.421 20.9716V25.0252C267.421 28.2682 267.421 29.4662 264.989 29.4662H264.992Z" fill="#001E55" /><path d="M118.137 44.1614H125.114C126.489 44.1614 126.804 45.1822 126.804 46.3803C126.804 48.0707 126.03 48.8125 123.739 48.8125H118.137V54.6616C119.617 54.9439 121.52 54.98 123.279 54.98C124.76 54.98 126.026 54.9111 127.119 54.7338C127.684 54.6977 128.176 54.6649 128.494 54.6649C129.728 54.6649 129.974 57.2743 129.974 58.0489C129.974 58.9647 129.305 59.247 128.248 59.4242C127.26 59.5654 123.384 59.7755 121.025 59.7755C118.065 59.7755 115.423 59.5293 113.979 59.2831C112.394 59.0008 112.216 57.9439 112.216 57.1693V36.3068C112.216 35.5322 112.394 34.4753 113.979 34.193C115.459 33.9469 118.101 33.7007 121.097 33.7007C123.424 33.7007 127.264 33.9108 128.248 34.0519C129.305 34.2291 129.974 34.5114 129.974 35.4272C129.974 36.2018 129.728 38.8113 128.494 38.8113C128.176 38.8113 127.648 38.7423 127.119 38.7062C126.099 38.6012 124.792 38.4962 123.348 38.4962C121.55 38.4962 119.614 38.5323 118.133 38.8145V44.1713L118.137 44.1614Z" fill="#001E55" /><path d="M134.766 38.2437C136.564 38.2437 137.057 39.1233 137.198 41.5555C138.573 39.3695 140.722 37.9253 143.4 37.9253C145.937 37.9253 148.051 38.8411 148.966 41.8707C150.515 39.5107 152.878 37.9253 155.907 37.9253C159.15 37.9253 161.546 39.4056 161.546 44.9724V55.2264C161.546 58.4694 161.546 59.6674 159.114 59.6674C158.162 59.6674 155.73 59.5263 155.73 58.3971V46.3444C155.73 44.0895 155.166 43.2098 153.863 43.2098C152.488 43.2098 149.636 45.2875 149.495 51.1038V55.2264C149.495 58.4694 149.495 59.6674 147.063 59.6674C146.111 59.6674 143.715 59.5263 143.715 58.3971V46.3444C143.715 44.0534 143.082 43.2098 141.812 43.2098C140.542 43.2098 138.146 44.8674 137.549 49.3412V55.2264C137.549 58.4694 137.549 59.6674 135.117 59.6674C134.129 59.6674 131.733 59.5263 131.733 58.3971V39.3695C131.733 38.3126 133.637 38.2404 134.763 38.2404L134.766 38.2437Z" fill="#001E55" /><path d="M163.554 48.885C163.554 43.351 165.458 37.9253 173.633 37.9253C179.553 37.9253 182.09 40.7809 182.09 45.3598C182.09 50.7526 178.674 52.4069 173.633 52.4069C172.717 52.4069 171.801 52.338 171.027 52.0885C170.426 51.9113 169.934 51.629 169.547 51.35C169.934 53.2898 171.204 54.908 175.254 54.908C177.472 54.908 179.13 54.4485 180.118 54.1334C180.682 53.9562 181.069 53.7822 181.247 53.7822C182.057 53.7822 182.339 56.6017 182.339 57.3074C182.339 57.872 182.129 58.1871 181.565 58.5055C180.367 59.1389 177.794 59.7724 174.2 59.7724C165.005 59.7724 163.561 53.6049 163.561 48.885H163.554ZM169.471 47.3324C170.351 47.7558 171.48 48.002 172.642 48.002C175.001 48.002 176.271 46.9451 176.271 45.1825C176.271 43.4199 175.037 42.7175 173.383 42.7175C170.778 42.7175 169.754 44.549 169.471 47.3324Z" fill="#001E55" /><path d="M187.511 38.2437C189.556 38.2437 189.907 39.3728 189.979 42.6124C190.967 40.3936 192.867 37.9253 196.743 37.9253C198.328 37.9253 198.364 38.7721 198.364 39.4745C198.364 42.363 197.449 43.2459 196.074 43.2459C192.657 43.2459 190.294 47.6147 190.294 51.5962V55.2264C190.294 58.4694 190.294 59.6674 187.863 59.6674C186.875 59.6674 184.479 59.5263 184.479 58.3971V39.3695C184.479 38.3126 186.382 38.2404 187.508 38.2404L187.511 38.2437Z" fill="#001E55" /><path d="M212.388 56.5328C211.928 57.0612 211.436 57.5536 210.872 58.0131C209.287 59.2801 207.488 59.7757 205.693 59.7757C200.796 59.7757 198.821 55.6892 198.821 50.2603C198.821 42.5796 202.733 37.9253 210.166 37.9253C213.231 37.9253 215.873 38.4176 217.353 39.0183C218.164 39.3367 218.233 39.619 218.233 40.0752V55.3676C218.233 65.3393 212.102 66.9968 206.428 66.9968C202.729 66.9968 199.697 66.5734 198.818 66.2911C198.217 66.045 198.079 65.9038 198.079 65.2342C198.079 63.7539 198.43 61.4989 199.1 61.4989C199.205 61.4989 199.7 61.535 199.979 61.5679C200.58 61.6729 202.726 62.0274 205.654 62.0274C209.671 62.0274 212.102 60.7604 212.385 56.5295L212.388 56.5328ZM212.424 46.2427V43.3543C211.823 43.1442 211.085 43.003 210.133 43.003C206.33 43.003 204.636 46.2099 204.636 50.2635C204.636 52.6596 205.411 54.7045 207.738 54.7045C210.662 54.7045 212.424 50.7592 212.424 46.246V46.2427Z" fill="#001E55" /><path d="M229.795 37.9253C237.369 37.9253 239.765 43.351 239.765 48.8489C239.765 54.3468 237.369 59.7724 229.795 59.7724C222.22 59.7724 219.894 54.3106 219.894 48.8489C219.894 43.3871 222.184 37.9253 229.795 37.9253ZM225.67 48.885C225.67 51.8456 226.799 54.8391 229.792 54.8391C232.785 54.8391 233.986 51.8423 233.986 48.885C233.986 45.9276 232.857 42.8586 229.792 42.8586C226.726 42.8586 225.67 45.8193 225.67 48.885Z" fill="#001E55" /><path d="M1.38184 31.5672C1.38184 16.1829 13.8528 3.71338 29.2348 3.71338C44.6168 3.71338 57.0878 16.1829 57.0878 31.5672C57.0878 46.9514 44.6201 59.4242 29.2348 59.4242C13.8528 59.4242 1.38184 46.9514 1.38184 31.5672Z" fill="#D2E6FF" /><path d="M68.2426 59.4242C83.6246 59.4242 96.0956 46.9514 96.0956 31.5672C96.0956 16.1829 83.6246 3.71338 68.2426 3.71338C52.8606 3.71338 40.3896 16.1829 40.3896 31.5672C40.3896 46.9514 52.8606 59.4242 68.2426 59.4242Z" fill="#FFEBB4" /><path d="M39.799 47.6633C39.356 47.0429 38.4929 46.8985 37.8693 47.3416C28.8541 53.775 20.9908 47.6534 20.6626 47.3909C20.0686 46.9116 19.1989 47.0035 18.7165 47.5976C18.2373 48.1917 18.3292 49.0616 18.9233 49.5441C18.9889 49.5966 23.3176 53.0069 29.3792 53.0069C32.4149 53.0069 35.8838 52.1502 39.4708 49.5933C40.0911 49.1502 40.2355 48.2869 39.7925 47.6633H39.799Z" fill="#001E55" /><path d="M24.1411 25.866C24.7023 26.3846 25.5753 26.3517 26.0938 25.7905C26.6123 25.2292 26.5762 24.3528 26.0183 23.8342C23.8425 21.8221 18.2502 19.2225 12.6711 23.7784C12.0803 24.2609 11.9917 25.134 12.4742 25.7248C12.7466 26.0596 13.1437 26.2336 13.5473 26.2336C13.8558 26.2336 14.1643 26.1318 14.4203 25.9218C19.5104 21.7663 23.9606 25.7018 24.1411 25.866Z" fill="#001E55" /><path d="M68.2426 2.32812C60.7534 2.32812 53.9173 5.16077 48.7386 9.80525C43.5599 5.15749 36.7238 2.32812 29.2346 2.32812C13.1142 2.32812 0 15.4443 0 31.567C0 47.6898 13.1142 60.806 29.2346 60.806C36.7238 60.806 43.5599 57.9733 48.7386 53.3288C53.9173 57.9766 60.7534 60.806 68.2426 60.806C84.363 60.806 97.4772 47.6898 97.4772 31.567C97.4772 15.4443 84.363 2.32812 68.2426 2.32812ZM48.7386 49.4426C44.4164 44.7292 41.7745 38.4534 41.7745 31.567C41.7745 24.6807 44.4164 18.4049 48.7386 13.6915C53.0608 18.4049 55.7027 24.6807 55.7027 31.567C55.7027 38.4534 53.0608 44.7292 48.7386 49.4426ZM2.76659 31.567C2.76659 16.9706 14.6403 5.09512 29.2346 5.09512C35.9526 5.09512 42.0896 7.61595 46.7629 11.755C41.9518 16.9673 39.0079 23.9291 39.0079 31.567C39.0079 39.205 41.9518 46.1668 46.7629 51.3792C42.0896 55.5182 35.9526 58.039 29.2346 58.039C14.6403 58.039 2.76659 46.1635 2.76659 31.567ZM68.2426 58.039C61.5246 58.039 55.3876 55.5182 50.7143 51.3792C55.5254 46.1668 58.4693 39.205 58.4693 31.567C58.4693 23.9291 55.5254 16.9673 50.7143 11.755C55.3876 7.61595 61.5246 5.09512 68.2426 5.09512C74.9605 5.09512 81.2321 7.66847 85.9218 11.8863C82.4759 10.8819 77.4448 10.7243 72.6632 15.3983C66.9101 21.0177 68.6265 32.5025 71.0814 41.1481C71.2553 41.7554 71.8067 42.1525 72.4105 42.1525C72.5352 42.1525 72.6632 42.1361 72.7879 42.1C73.5231 41.8899 73.9497 41.1252 73.7397 40.3932C71.8985 33.9074 69.5619 22.2912 74.5929 17.3776C82.0493 10.0941 90.1587 17.1051 90.5164 17.4202C90.5624 17.4629 90.6149 17.4925 90.6641 17.5286C93.2239 21.6019 94.7106 26.4138 94.7106 31.5703C94.7106 46.1668 82.8369 58.0423 68.2426 58.0423V58.039Z" fill="#001E55" /><path d="M78.2718 47.3418C69.2631 53.7686 61.4064 47.6635 61.0651 47.391C60.4711 46.9118 59.6014 47.007 59.1223 47.6011C58.6431 48.1952 58.735 49.065 59.329 49.5475C59.3946 49.6 63.7201 53.0104 69.785 53.0104C72.8207 53.0104 76.2896 52.1537 79.8766 49.5967C80.4969 49.1536 80.6413 48.2904 80.1982 47.6667C79.7552 47.0464 78.8921 46.902 78.2685 47.3451L78.2718 47.3418Z" fill="#001E55" /><path d="M86.8935 21.5531C84.7603 23.296 82.5024 23.8507 80.192 23.2008C78.3936 22.6953 77.1957 21.6286 77.1695 21.6056C76.6083 21.0903 75.7353 21.1264 75.22 21.6877C74.7015 22.2489 74.7376 23.1253 75.2955 23.6406C76.582 24.8321 79.0631 26.2271 82.0299 26.2271C84.081 26.2271 86.3619 25.5608 88.6428 23.6964C89.2335 23.2139 89.3221 22.3408 88.8397 21.75C88.3572 21.1592 87.4843 21.0706 86.8935 21.5531Z" fill="#001E55" /><text x="181" y="82" text-anchor="middle" font-family="Arial, Helvetica, sans-serif" font-size="8.5" font-weight="400" letter-spacing="0.5" fill="#001E55"><tspan x="181" dy="0">Because autism</tspan><tspan x="181" dy="12">doesn't take a break</tspan></text></svg>