<?xml version="1.0" encoding="UTF-8"?> <svg xmlns="http://www.w3.org/2000/svg" id="b2d2621f-dc30-49c7-a603-bee951485442" data-name="Logo Client" width="225" height="70" viewBox="0 0 225 70"><rect width="225" height="70" fill="none"></rect><path d="M71.829,41.205a7.564,7.564,0,0,1-3.972-1,13.189,13.189,0,0,1-.688-3.793c.128-.19.509-.244.611-.082.383,1.382,1.426,4.039,4.381,4.039a2.981,2.981,0,0,0,3.183-3.118,4.136,4.136,0,0,0-2.088-3.794l-2.42-1.681a5.818,5.818,0,0,1-2.75-4.662c0-2.574,1.884-4.662,5.2-4.662a9.283,9.283,0,0,1,2.369.354,3.28,3.28,0,0,0,.891.162A12.572,12.572,0,0,1,77,26.272c-.1.162-.51.243-.637.081-.331-1.3-1.018-3.063-3.463-3.063A2.759,2.759,0,0,0,69.868,26.3a4.264,4.264,0,0,0,2.165,3.334l2.037,1.355a6.13,6.13,0,0,1,3.183,5.2C77.253,39.173,75.14,41.205,71.829,41.205Z" fill="#00324d"></path><path d="M83.668,24.754a10.533,10.533,0,0,1,6.876-2.3,18.562,18.562,0,0,1,4.509.651,1.815,1.815,0,0,0,.712.109c.025.623.154,2.331.356,3.983a.511.511,0,0,1-.687.055c-.381-1.842-1.528-3.957-5.221-3.957-3.9,0-7.207,2.629-7.207,8.239,0,5.693,3.387,8.837,7.563,8.837a5.473,5.473,0,0,0,5.323-3.876.512.512,0,0,1,.662.108,10.562,10.562,0,0,1-1.222,3.713,5.08,5.08,0,0,0-.891.271,14.171,14.171,0,0,1-4.024.623,10.644,10.644,0,0,1-6.341-1.816,8.9,8.9,0,0,1-3.617-7.452A9.229,9.229,0,0,1,83.668,24.754Z" fill="#00324d"></path><path d="M104.952,32.018c-1.222,0-1.274.054-1.274.867v3.821c0,2.847.128,3.225,1.555,3.389l.737.081c.154.109.1.6-.05.677-1.376-.054-2.242-.081-3.235-.081-1.095,0-1.961.055-2.954.081a.552.552,0,0,1-.051-.677l.433-.081c1.427-.271,1.477-.542,1.477-3.389V26.949c0-2.846-.178-3.307-1.5-3.415l-.662-.054c-.153-.109-.1-.6.051-.677,1.247.026,2.113.081,3.208.081.993,0,1.859-.028,2.954-.081a.558.558,0,0,1,.052.677l-.485.054c-1.476.162-1.528.569-1.528,3.415v3.118c0,.839.052.867,1.274.867h7.284c1.222,0,1.274-.028,1.274-.867V26.949c0-2.846-.052-3.253-1.555-3.415l-.483-.054a.56.56,0,0,1,.05-.677c1.172.053,2.038.081,3.083.081.993,0,1.859-.028,3-.081.153.081.2.568.052.677l-.535.054c-1.478.162-1.528.569-1.528,3.415v9.757c0,2.847.05,3.2,1.528,3.389l.611.081c.153.109.1.6-.051.677-1.222-.054-2.088-.081-3.081-.081-1.045,0-1.961.027-3.083.081a.553.553,0,0,1-.05-.677l.483-.081c1.555-.271,1.555-.542,1.555-3.389V32.885c0-.813-.052-.867-1.274-.867Z" fill="#00324d"></path><path d="M135.023,29.687c0-1.68-.052-4.8-.485-5.611a1.535,1.535,0,0,0-1.272-.569l-.637-.055a.51.51,0,0,1,.05-.649c.968.053,1.911.081,2.9.081,1.069,0,1.757-.028,2.674-.081a.489.489,0,0,1,.051.649l-.612.055a1.466,1.466,0,0,0-1.273.65c-.357.894-.357,4.012-.357,5.53V32.75c0,2.357-.356,4.85-1.782,6.477a6.49,6.49,0,0,1-4.865,1.978,6.936,6.936,0,0,1-4.763-1.49c-1.349-1.193-1.986-3.171-1.986-6.4v-6.4c0-2.818-.05-3.279-1.528-3.414l-.636-.055c-.153-.108-.1-.568.051-.649,1.273.053,2.139.081,3.158.081,1.043,0,1.884-.028,3.133-.081a.52.52,0,0,1,.05.649l-.612.055c-1.476.135-1.528.6-1.528,3.414v5.855c0,4.365,1.274,7.238,5.171,7.238,3.693,0,5.094-3.091,5.094-7.21Z" fill="#00324d"></path><path d="M143.14,26.949c0-2.846-.05-3.279-1.655-3.415l-.637-.054a.56.56,0,0,1,.05-.677c1.426.053,2.292.081,3.312.081.993,0,1.859-.028,3.133-.081.152.081.2.568.05.677l-.61.054c-1.5.136-1.555.569-1.555,3.415v9.432c0,1.708.077,2.412.535,2.927.281.3.764.623,2.777.623,2.164,0,2.7-.107,3.106-.352a5.787,5.787,0,0,0,1.681-2.683c.153-.135.637-.026.637.162a22.842,22.842,0,0,1-1.07,3.8c-1.3-.054-3.718-.081-6.342-.081H144.21c-1.07,0-1.886.027-3.312.081a.553.553,0,0,1-.05-.677l.764-.081c1.478-.164,1.528-.542,1.528-3.389Z" fill="#00324d"></path><path d="M165.139,33.536c.587,1.274,1.147,2.52,1.757,3.712h.052c.687-1.273,1.324-2.683,1.961-4.065l2.393-5.176c1.146-2.467,1.885-3.959,1.936-5.2a18.157,18.157,0,0,0,1.91.081c.636,0,1.477-.028,2.266-.081a.594.594,0,0,1,.025.677l-.534.054c-1.6.162-1.808.678-1.783,2.575.052,2.872.077,7.887.281,11.79.076,1.355.05,2.087,1.247,2.2l.816.081a.522.522,0,0,1-.052.677c-1.043-.054-2.088-.081-3-.081-.891,0-2.037.027-3.081.081a.524.524,0,0,1-.051-.677l.738-.081c1.248-.136,1.248-.57,1.248-2.3l-.076-11.3h-.051c-.178.3-1.146,2.467-1.655,3.524l-2.267,4.743c-1.146,2.386-2.291,4.933-2.751,6.179a.281.281,0,0,1-.254.109.3.3,0,0,1-.229-.109c-.433-1.436-1.655-4.092-2.242-5.42l-2.292-5.231c-.535-1.247-1.07-2.656-1.63-3.9h-.05c-.1,1.681-.179,3.253-.256,4.826-.075,1.652-.177,4.066-.177,6.369,0,2.005.152,2.44,1.145,2.521l.968.081c.179.163.154.6-.025.677-.866-.054-1.859-.081-2.827-.081-.815,0-1.732.027-2.6.081a.56.56,0,0,1-.05-.677l.56-.081c1.07-.164,1.426-.326,1.578-2.222.154-1.789.281-3.281.433-5.964.127-2.25.229-4.553.281-6.044.05-1.708-.154-2.114-1.707-2.331l-.407-.054a.528.528,0,0,1,.1-.677c.764.053,1.376.081,2.013.081a20.77,20.77,0,0,0,2.113-.081c-.1,1.055.535,2.737,1.324,4.472Z" fill="#00324d"></path><path d="M190.6,34.484c-.177-.6-.279-.677-1.043-.677h-3.846c-.636,0-.789.081-.968.649l-.891,2.847a10.877,10.877,0,0,0-.56,2.25c0,.325.127.487.739.542l.84.081a.453.453,0,0,1-.051.677c-.662-.054-1.451-.054-2.648-.081-.841,0-1.757.055-2.446.081a.558.558,0,0,1-.05-.677l.841-.081a1.717,1.717,0,0,0,1.527-1.328c.459-1.248,1.171-3.009,2.241-6.045l2.6-7.317a4.116,4.116,0,0,0,.433-1.925,2.869,2.869,0,0,0,1.324-1.031.359.359,0,0,1,.382.245c.331,1.192.739,2.44,1.12,3.631l3.489,10.9c.739,2.331,1.07,2.737,2.165,2.873l.689.081a.559.559,0,0,1,0,.677c-1.045-.054-1.936-.081-3.083-.081-1.222,0-2.19.055-2.929.081a.472.472,0,0,1-.05-.677l.739-.081c.533-.055.891-.217.891-.488a5.839,5.839,0,0,0-.331-1.437Zm-5.042-2.412c-.2.623-.178.65.535.65h3.133c.739,0,.789-.108.56-.84l-1.375-4.417c-.2-.651-.433-1.383-.586-1.708h-.051c-.076.135-.331.786-.611,1.6Z" fill="#00324d"></path><path d="M214.837,36.165c0,.812,0,4.037.077,4.743a.46.46,0,0,1-.485.3c-.305-.459-1.043-1.409-3.26-4.092l-5.908-7.155c-.687-.841-2.419-3.063-2.954-3.66h-.052a7.374,7.374,0,0,0-.127,1.762v5.909c0,1.274.026,4.8.459,5.61.153.3.662.461,1.3.516l.791.081a.519.519,0,0,1-.052.677c-1.145-.054-2.037-.081-2.979-.081-1.07,0-1.757.027-2.649.081a.525.525,0,0,1-.051-.677l.688-.081c.586-.081.993-.245,1.12-.542a27.786,27.786,0,0,0,.332-5.584V26.136a2.6,2.6,0,0,0-.561-1.952,2.674,2.674,0,0,0-1.579-.65l-.433-.054c-.153-.163-.153-.57.051-.677,1.07.081,2.42.081,2.878.081a7.9,7.9,0,0,0,1.172-.081c.508,1.381,3.514,4.959,4.355,5.962l2.469,2.954c1.759,2.088,3.006,3.6,4.2,4.906h.051a2.919,2.919,0,0,0,.1-1.138v-5.8c0-1.274-.025-4.8-.508-5.611-.154-.244-.56-.406-1.58-.542l-.433-.054c-.177-.163-.152-.6.052-.677,1.171.053,2.036.081,3,.081,1.095,0,1.758-.028,2.624-.081a.5.5,0,0,1,.051.677l-.357.054c-.815.136-1.324.352-1.426.569-.433.976-.382,4.337-.382,5.584Z" fill="#00324d"></path><rect x="10.415" y="45.725" width="206.698" height="0.796" fill="#79755d"></rect><path d="M16.537,56.754c0,.376.049.657.236.753a.139.139,0,0,1-.009.162,2.689,2.689,0,0,0-.475.085,8.231,8.231,0,0,1-1.918.291,3.947,3.947,0,0,1-3.045-1.183,3.719,3.719,0,0,1-.869-2.464,3.79,3.79,0,0,1,.909-2.528A4.024,4.024,0,0,1,14.52,50.6a6.6,6.6,0,0,1,1.315.16,3.557,3.557,0,0,0,.633.1c.009.323.078.871.128,1.709a.2.2,0,0,1-.316.023,1.8,1.8,0,0,0-1.9-1.56c-1.741,0-2.581,1.366-2.581,3.2a4.045,4.045,0,0,0,.712,2.474,2.43,2.43,0,0,0,1.908.915c.475,0,.761-.087.88-.248a1.48,1.48,0,0,0,.089-.677V56.3c0-.764-.01-.828-.673-.947l-.356-.064a.246.246,0,0,1,.01-.312c.386.021.86.032,1.543.032.445,0,.78-.011,1.206-.032a.208.208,0,0,1,.019.312l-.178.032c-.365.065-.424.151-.424.807Z" fill="#79755d"></path><path d="M19.847,52.321c0-1.139-.09-1.183-.554-1.247l-.159-.022c-.069-.076-.059-.269.021-.312.375.021.84.032,1.275.032h1.888c.633,0,1.206-.011,1.334-.032.041.183.1,1.032.159,1.5a.249.249,0,0,1-.317.042c-.158-.623-.306-.881-.623-.979a3.1,3.1,0,0,0-.79-.1h-.663c-.425,0-.425.021-.425.636v1.817c0,.281.01.291.237.291h.475c.86,0,1.008-.01,1.1-.474l.068-.364c.08-.076.267-.076.317.009-.009.291-.03.679-.03,1.077s.021.785.03,1.129c-.05.075-.237.075-.317.011L22.8,54.9c-.07-.453-.238-.474-1.1-.474H21.23c-.227,0-.237.021-.237.291v1.366a2.056,2.056,0,0,0,.168,1.118c.119.151.287.227,1.118.238,1.254.011,1.472-.291,1.819-1.162a.22.22,0,0,1,.315.064A7.221,7.221,0,0,1,24,57.905c-.434-.021-1.285-.032-2.441-.032H20.43c-.435,0-1.039.011-1.483.032-.079-.043-.089-.236-.02-.311l.366-.044c.464-.054.554-.086.554-1.226Z" fill="#79755d"></path><path d="M26.35,57.594a3.453,3.453,0,0,1-.3-1.636.208.208,0,0,1,.306-.043c.179.549.712,1.7,1.682,1.7a1.094,1.094,0,0,0,1.176-1.151,1.736,1.736,0,0,0-1.009-1.56l-.424-.259a2.474,2.474,0,0,1-1.394-2.077A1.951,1.951,0,0,1,28.565,50.6a6.12,6.12,0,0,1,1.354.224,4.871,4.871,0,0,1,.208,1.453.224.224,0,0,1-.316.032c-.149-.559-.494-1.279-1.335-1.279a1.051,1.051,0,0,0-1.117,1.13,1.587,1.587,0,0,0,.94,1.311l.611.356a2.428,2.428,0,0,1,1.355,2.119,2.068,2.068,0,0,1-2.293,2.1A2.83,2.83,0,0,1,26.35,57.594Z" fill="#79755d"></path><path d="M34.781,51.676c0-.453-.01-.474-.267-.474h-.553c-.909,0-1.176.119-1.542.991a.236.236,0,0,1-.317-.076c.167-.581.317-1.248.385-1.624a.12.12,0,0,1,.109-.043.111.111,0,0,1,.1.043c.049.268.188.279.861.279h4.033c.484,0,.633-.032.75-.279a.27.27,0,0,1,.119-.043.151.151,0,0,1,.129.053,8.254,8.254,0,0,0-.148,1.711.222.222,0,0,1-.306.032c-.129-.84-.317-1.044-1.375-1.044H36.2c-.259,0-.269.021-.269.474v4.648c0,1.14.09,1.172.555,1.226l.356.044c.068.075.059.268-.021.311-.573-.021-1.018-.032-1.453-.032s-.9.011-1.532.032a.245.245,0,0,1-.019-.311l.415-.055c.465-.064.553-.075.553-1.215Z" fill="#79755d"></path><path d="M42.3,56.324c0,1.14.09,1.172.555,1.238l.216.032c.07.075.06.268-.019.311-.435-.021-.88-.032-1.315-.032s-.9.011-1.335.032c-.078-.043-.088-.236-.019-.311l.217-.032c.465-.066.553-.1.553-1.238v-4c0-1.139-.088-1.172-.553-1.237l-.217-.032c-.069-.076-.059-.269.019-.312.436.021.88.032,1.335.032.435,0,.88-.011,1.315-.032.079.043.089.236.019.312l-.216.032c-.465.065-.555.1-.555,1.237Z" fill="#79755d"></path><path d="M52.179,54.344a3.5,3.5,0,0,1-3.48,3.7,3.447,3.447,0,0,1-3.52-3.626A3.561,3.561,0,0,1,48.718,50.6,3.444,3.444,0,0,1,52.179,54.344Zm-5.655-.236c0,1.484.584,3.507,2.274,3.507,1.127,0,2.036-.915,2.036-3.077,0-1.625-.672-3.507-2.244-3.507C47.6,51.031,46.524,51.816,46.524,54.108Z" fill="#79755d"></path><path d="M60.491,56.043c0,.324,0,1.647.03,1.894a.361.361,0,0,1-.336.151c-.158-.226-.446-.592-1.157-1.473l-2.314-2.873c-.633-.8-.958-1.2-1.126-1.357-.03,0-.03.119-.03.689v2.1a7.063,7.063,0,0,0,.178,2.119.61.61,0,0,0,.505.27l.216.032c.089.075.08.279-.02.311-.365-.021-.751-.032-1.127-.032-.414,0-.681.011-1.028.032a.233.233,0,0,1-.019-.311l.218-.055c.187-.043.366-.075.434-.247a9.118,9.118,0,0,0,.129-2.119v-2.55c0-.839.009-1.011-.326-1.324a1.508,1.508,0,0,0-.524-.215l-.149-.032c-.068-.065-.059-.28.04-.312a11.437,11.437,0,0,0,1.167.032c.208,0,.444-.011.681-.032a14.217,14.217,0,0,0,1.592,2.226l.989,1.163c.415.5,1.334,1.635,1.433,1.7.03-.032.03-.085.03-.257v-2.1a6.716,6.716,0,0,0-.188-2.119.586.586,0,0,0-.494-.269l-.228-.032c-.089-.076-.079-.28.02-.312.385.021.751.032,1.137.032.426,0,.683-.011,1.038-.032a.236.236,0,0,1,.021.312l-.228.054c-.189.043-.356.076-.426.247a8.536,8.536,0,0,0-.138,2.119Z" fill="#79755d"></path><path d="M67.755,52.385c0-1.032-.01-1.183-.474-1.226l-.208-.021a.23.23,0,0,1,.01-.3c.712-.065,1.5-.1,2.472-.1a6.009,6.009,0,0,1,2.332.366,3.292,3.292,0,0,1,2.027,3.217,3.454,3.454,0,0,1-1.77,3.1,5.036,5.036,0,0,1-2.451.517c-.6,0-1.068-.064-1.434-.064s-.82.011-1.256.032c-.078-.043-.088-.236-.019-.311l.218-.032c.465-.066.553-.1.553-1.238ZM68.9,55.9c0,1.044.07,1.6,1.118,1.6,1.759,0,2.55-1.356,2.55-3.173,0-2.131-1.137-3.164-2.788-3.164a1.612,1.612,0,0,0-.8.151c-.07.064-.08.291-.08.8Z" fill="#79755d"></path><path d="M76.788,52.321c0-1.139-.088-1.183-.553-1.247l-.158-.022c-.069-.076-.06-.269.02-.312.376.021.839.032,1.275.032H79.26c.633,0,1.206-.011,1.334-.032.041.183.1,1.032.159,1.5a.249.249,0,0,1-.317.042c-.157-.623-.305-.881-.622-.979a3.111,3.111,0,0,0-.791-.1h-.662c-.426,0-.426.021-.426.636v1.817c0,.281.01.291.237.291h.475c.861,0,1.009-.01,1.1-.474l.069-.364a.237.237,0,0,1,.317.009c-.01.291-.031.679-.031,1.077s.021.785.031,1.129a.265.265,0,0,1-.317.011l-.069-.43c-.07-.453-.237-.474-1.1-.474h-.475c-.227,0-.237.021-.237.291v1.366a2.054,2.054,0,0,0,.169,1.118c.119.151.286.227,1.117.238,1.255.011,1.472-.291,1.819-1.162a.22.22,0,0,1,.315.064,7.282,7.282,0,0,1-.414,1.56c-.435-.021-1.285-.032-2.442-.032H77.372c-.436,0-1.038.011-1.483.032a.245.245,0,0,1-.02-.311l.366-.044c.465-.054.553-.086.553-1.226Z" fill="#79755d"></path><path d="M87.512,52.385c0-.979-.01-1.15-.425-1.2l-.346-.044c-.068-.075-.068-.258.01-.3a16.712,16.712,0,0,1,2.186-.1A3.951,3.951,0,0,1,91,51.17a1.869,1.869,0,0,1,.841,1.614,2.091,2.091,0,0,1-2.215,2.088,1.636,1.636,0,0,1-.247-.012.227.227,0,0,1-.03-.268,1.6,1.6,0,0,0,1.227-1.786,1.481,1.481,0,0,0-1.415-1.636c-.495,0-.5.032-.5.451v4.7c0,1.14.089,1.172.554,1.226l.366.044a.271.271,0,0,1-.021.311c-.582-.021-1.028-.032-1.462-.032s-.88.011-1.275.032c-.08-.043-.09-.236-.02-.311l.158-.023c.465-.064.553-.107.553-1.247Z" fill="#79755d"></path><path d="M94.748,55.237c-.257,0-.247,0-.335.291l-.406,1.291c-.2.635-.158.656.208.72l.286.055c.07.075.06.268-.02.311-.315-.021-.642-.021-1.047-.032-.327,0-.633.011-.979.032a.258.258,0,0,1-.01-.311l.3-.055c.288-.053.4-.139.545-.494.119-.28.276-.732.484-1.313l1.354-3.83a1.987,1.987,0,0,0,.188-.786c.345-.074.672-.515.692-.515a.2.2,0,0,1,.169.085c.158.484.286.99.444,1.475l1.423,4.507c.228.72.277.786.781.894l.149.032a.249.249,0,0,1,.01.311c-.406-.021-.771-.032-1.285-.032-.426,0-.86.021-1.207.032a.259.259,0,0,1-.029-.311l.217-.032c.356-.055.406-.119.258-.572l-.465-1.462c-.09-.291-.129-.291-.405-.291Zm1.187-.484c.277,0,.316-.021.238-.28l-.416-1.291a7.167,7.167,0,0,0-.277-.85h-.02c-.039.076-.128.344-.3.85l-.416,1.259c-.1.312-.078.312.159.312Z" fill="#79755d"></path><path d="M102.191,51.676c0-.453-.01-.474-.267-.474h-.553c-.909,0-1.176.119-1.542.991a.236.236,0,0,1-.317-.076c.169-.581.317-1.248.386-1.624a.119.119,0,0,1,.109-.043.112.112,0,0,1,.1.043c.049.268.187.279.86.279H105c.483,0,.632-.032.75-.279a.262.262,0,0,1,.118-.043A.151.151,0,0,1,106,50.5a8.324,8.324,0,0,0-.148,1.711.222.222,0,0,1-.306.032c-.128-.84-.317-1.044-1.374-1.044h-.563c-.259,0-.268.021-.268.474v4.648c0,1.14.089,1.172.554,1.226l.356.044c.069.075.059.268-.021.311-.572-.021-1.018-.032-1.452-.032s-.9.011-1.532.032a.244.244,0,0,1-.02-.311l.415-.055c.465-.064.553-.075.553-1.215Z" fill="#79755d"></path><path d="M108.565,52.385c0-1.032-.009-1.162-.473-1.215l-.257-.032a.229.229,0,0,1,.01-.3c.623-.065,1.462-.1,2.274-.1a3.856,3.856,0,0,1,1.877.366,1.71,1.71,0,0,1,.87,1.57,1.837,1.837,0,0,1-1.186,1.7c-.06.033-.039.118,0,.183a12.5,12.5,0,0,0,1.75,2.787,1.213,1.213,0,0,0,.682.333.206.206,0,0,1,.019.215,2.416,2.416,0,0,1-.652.066c-.948,0-1.462-.421-2.066-1.421-.267-.452-.544-1.043-.781-1.464a.547.547,0,0,0-.613-.365c-.3,0-.307.011-.307.237v1.377c0,1.14.089,1.172.555,1.238l.216.032c.07.075.06.268-.02.311-.434-.021-.879-.032-1.314-.032s-.88.011-1.335.032a.224.224,0,0,1-.02-.311l.218-.032c.465-.066.553-.1.553-1.238Zm1.147,1.551c0,.343,0,.366.475.366.969,0,1.413-.517,1.413-1.539a1.44,1.44,0,0,0-1.363-1.593c-.515,0-.525.032-.525.527Z" fill="#79755d"></path><path d="M117.482,56.324c0,1.14.089,1.172.554,1.238l.217.032c.07.075.06.268-.02.311-.434-.021-.88-.032-1.314-.032s-.9.011-1.335.032c-.079-.043-.088-.236-.02-.311l.218-.032c.465-.066.553-.1.553-1.238v-4c0-1.139-.088-1.172-.553-1.237l-.218-.032c-.068-.076-.059-.269.02-.312q.653.032,1.335.032c.434,0,.88-.011,1.314-.032.08.043.09.236.02.312l-.217.032c-.465.065-.554.1-.554,1.237Z" fill="#79755d"></path><path d="M128.6,57.594c.1.043.089.268-.02.311-.424-.021-.81-.032-1.2-.032-.465,0-.89.011-1.325.032-.078-.043-.119-.247-.02-.311l.267-.055c.395-.075.426-.151.426-.881v-4.4H126.7c-.267.592-.4.915-.592,1.345l-.851,1.894c-.336.753-.831,1.947-1.008,2.452a.265.265,0,0,1-.257,0c-.168-.581-.594-1.635-.82-2.173l-.88-2.065c-.188-.453-.455-1.13-.574-1.453h-.02c-.019.527-.039,1.366-.06,1.818-.019.657-.039,1.614-.039,2.5,0,.71.01.872.436.957l.326.066c.069.064.069.268-.01.311-.366-.021-.672-.032-1.038-.032-.317,0-.672.011-1.057.032a.247.247,0,0,1-.031-.311l.169-.023c.473-.064.543-.225.612-.881.07-.679.1-1.377.149-2.5.039-.732.1-1.626.1-2.282,0-.506-.148-.721-.534-.8l-.335-.064c-.06-.076-.05-.28.039-.312.3.021.563.032.929.032.346,0,.693,0,1.059-.032a5.161,5.161,0,0,0,.543,1.787l1.087,2.484c.079.183.336.721.465.968.158-.311.286-.613.514-1.119l.929-2.065a11.625,11.625,0,0,0,.8-2.055c.267.021.594.032.81.032.417,0,.762-.011,1.038-.032a.2.2,0,0,1,.031.312l-.327.054c-.434.076-.534.247-.534.817,0,1.592.02,3.185.09,4.777.029.72.138.786.454.839Z" fill="#79755d"></path><path d="M137.745,54.344a3.5,3.5,0,0,1-3.481,3.7,3.446,3.446,0,0,1-3.519-3.626,3.561,3.561,0,0,1,3.539-3.818A3.445,3.445,0,0,1,137.745,54.344Zm-5.655-.236c0,1.484.583,3.507,2.273,3.507,1.127,0,2.037-.915,2.037-3.077,0-1.625-.672-3.507-2.245-3.507C133.166,51.031,132.09,51.816,132.09,54.108Z" fill="#79755d"></path><path d="M141.766,56.324c0,1.14.089,1.172.554,1.238l.217.032c.069.075.06.268-.02.311-.434-.021-.88-.032-1.314-.032s-.9.011-1.335.032c-.079-.043-.088-.236-.02-.311l.218-.032c.465-.066.553-.1.553-1.238v-4c0-1.139-.088-1.172-.553-1.237l-.218-.032c-.068-.076-.059-.269.02-.312.435.021.879.032,1.335.032.434,0,.88-.011,1.314-.032.08.043.089.236.02.312l-.217.032c-.465.065-.554.1-.554,1.237Z" fill="#79755d"></path><path d="M150.84,56.043c0,.324,0,1.647.029,1.894a.358.358,0,0,1-.335.151c-.158-.226-.446-.592-1.156-1.473l-2.315-2.873c-.632-.8-.958-1.2-1.125-1.357-.031,0-.031.119-.031.689v2.1a7.056,7.056,0,0,0,.179,2.119.61.61,0,0,0,.5.27l.216.032c.09.075.08.279-.019.311-.366-.021-.752-.032-1.127-.032-.415,0-.682.011-1.028.032a.232.232,0,0,1-.02-.311l.218-.055c.187-.043.366-.075.434-.247a9.118,9.118,0,0,0,.129-2.119v-2.55c0-.839.01-1.011-.326-1.324a1.506,1.506,0,0,0-.525-.215l-.148-.032c-.068-.065-.058-.28.041-.312a11.418,11.418,0,0,0,1.166.032c.207,0,.444-.011.682-.032a14.152,14.152,0,0,0,1.592,2.226l.989,1.163c.414.5,1.333,1.635,1.433,1.7.029-.032.029-.085.029-.257v-2.1a6.752,6.752,0,0,0-.187-2.119.588.588,0,0,0-.5-.269l-.227-.032c-.09-.076-.08-.28.019-.312.386.021.752.032,1.137.032.426,0,.683-.011,1.038-.032a.236.236,0,0,1,.021.312l-.228.054c-.188.043-.356.076-.426.247a8.536,8.536,0,0,0-.138,2.119Z" fill="#79755d"></path><path d="M154.4,52.321c0-1.139-.088-1.183-.553-1.247l-.158-.022c-.07-.076-.06-.269.02-.312.376.021.839.032,1.275.032h1.888c.633,0,1.206-.011,1.334-.032.041.183.1,1.032.159,1.5a.249.249,0,0,1-.317.042c-.158-.623-.306-.881-.623-.979a3.1,3.1,0,0,0-.79-.1h-.662c-.426,0-.426.021-.426.636v1.817c0,.281.01.291.237.291h.475c.86,0,1.009-.01,1.1-.474l.068-.364c.08-.076.267-.076.317.009-.009.291-.03.679-.03,1.077s.021.785.03,1.129c-.05.075-.237.075-.317.011l-.068-.43c-.07-.453-.238-.474-1.1-.474h-.475c-.227,0-.237.021-.237.291v1.366a2.054,2.054,0,0,0,.169,1.118c.119.151.286.227,1.117.238,1.254.011,1.472-.291,1.819-1.162a.22.22,0,0,1,.315.064,7.221,7.221,0,0,1-.415,1.56c-.434-.021-1.284-.032-2.441-.032h-1.127c-.436,0-1.038.011-1.483.032a.243.243,0,0,1-.02-.311l.366-.044c.465-.054.553-.086.553-1.226Z" fill="#79755d"></path><path d="M167.555,50.772c.633,0,1.186-.011,1.394-.032,0,.236,0,1.044.02,1.549-.041.087-.218.108-.317.043-.1-.624-.257-.935-.633-1.043a2.924,2.924,0,0,0-.83-.087h-.5c-.416,0-.416.021-.416.625v1.926c0,.268.01.29.237.29h.584c.86,0,1.009-.022,1.108-.473l.078-.366a.213.213,0,0,1,.3.011c-.011.279-.03.677-.03,1.076s.019.784.03,1.118a.211.211,0,0,1-.3.011L168.2,55c-.09-.451-.248-.473-1.108-.473h-.584c-.227,0-.237.022-.237.29v1.507c0,1.14.089,1.151.554,1.215l.415.055a.244.244,0,0,1-.019.311c-.633-.021-1.079-.032-1.513-.032s-.88.011-1.335.032c-.078-.043-.088-.236-.02-.311l.218-.032c.465-.066.553-.1.553-1.238v-4c0-1.139-.088-1.172-.553-1.247l-.128-.022c-.07-.076-.06-.269.019-.312.347.021.791.032,1.226.032Z" fill="#79755d"></path><path d="M171.843,55.237c-.257,0-.247,0-.335.291l-.407,1.291c-.2.635-.157.656.208.72l.287.055c.07.075.06.268-.02.311-.315-.021-.642-.021-1.047-.032-.327,0-.633.011-.979.032a.255.255,0,0,1-.01-.311l.3-.055c.288-.053.4-.139.545-.494.118-.28.276-.732.484-1.313l1.354-3.83a2.005,2.005,0,0,0,.188-.786c.345-.074.672-.515.692-.515a.191.191,0,0,1,.167.085c.159.484.288.99.446,1.475l1.423,4.507c.228.72.276.786.781.894l.149.032a.249.249,0,0,1,.01.311c-.407-.021-.771-.032-1.285-.032-.426,0-.86.021-1.207.032a.259.259,0,0,1-.029-.311l.216-.032c.357-.055.407-.119.259-.572l-.465-1.462c-.09-.291-.129-.291-.405-.291Zm1.187-.484c.277,0,.316-.021.236-.28l-.415-1.291a7.068,7.068,0,0,0-.276-.85h-.02c-.039.076-.128.344-.3.85l-.416,1.259c-.1.312-.078.312.158.312Z" fill="#79755d"></path><path d="M185.93,57.594c.1.043.089.268-.02.311-.424-.021-.81-.032-1.2-.032-.465,0-.89.011-1.326.032-.078-.043-.118-.247-.019-.311l.267-.055c.395-.075.426-.151.426-.881v-4.4h-.021c-.267.592-.405.915-.592,1.345l-.851,1.894c-.337.753-.831,1.947-1.008,2.452a.265.265,0,0,1-.257,0c-.168-.581-.594-1.635-.82-2.173l-.88-2.065c-.189-.453-.455-1.13-.574-1.453h-.02c-.019.527-.039,1.366-.06,1.818-.019.657-.039,1.614-.039,2.5,0,.71.01.872.436.957l.325.066c.07.064.07.268-.01.311-.365-.021-.671-.032-1.037-.032-.317,0-.672.011-1.058.032a.248.248,0,0,1-.03-.311l.169-.023c.473-.064.543-.225.612-.881.069-.679.1-1.377.149-2.5.039-.732.1-1.626.1-2.282,0-.506-.148-.721-.534-.8l-.335-.064c-.06-.076-.05-.28.039-.312.3.021.563.032.929.032.346,0,.693,0,1.059-.032a5.161,5.161,0,0,0,.543,1.787l1.086,2.484c.08.183.337.721.466.968.157-.311.286-.613.514-1.119l.928-2.065a11.708,11.708,0,0,0,.8-2.055c.267.021.594.032.81.032.416,0,.761-.011,1.038-.032a.2.2,0,0,1,.031.312l-.327.054c-.435.076-.534.247-.534.817,0,1.592.02,3.185.09,4.777.029.72.138.786.453.839Z" fill="#79755d"></path><path d="M189.98,56.324c0,1.14.09,1.172.555,1.238l.216.032c.07.075.06.268-.019.311-.435-.021-.88-.032-1.315-.032s-.9.011-1.335.032c-.078-.043-.088-.236-.019-.311l.217-.032c.465-.066.553-.1.553-1.238v-4c0-1.139-.088-1.172-.553-1.237l-.217-.032c-.069-.076-.059-.269.019-.312.436.021.88.032,1.335.032.435,0,.88-.011,1.315-.032.079.043.089.236.019.312l-.216.032c-.465.065-.555.1-.555,1.237Z" fill="#79755d"></path><path d="M194.764,56.1a2.031,2.031,0,0,0,.169,1.107c.118.151.276.238,1.067.238,1.1,0,1.255-.055,1.711-1.162a.249.249,0,0,1,.306.064,10.877,10.877,0,0,1-.415,1.56c-.416-.021-1.266-.032-2.373-.032H194.2c-.5,0-1,.011-1.414.032-.079-.043-.108-.258-.019-.311l.3-.055c.465-.085.553-.1.553-1.215v-4c0-1.119-.088-1.151-.553-1.226l-.277-.043c-.069-.053-.069-.269.02-.312.494.021.939.032,1.394.032.434,0,.88-.011,1.314-.032a.224.224,0,0,1,.02.312l-.217.043c-.465.087-.554.107-.554,1.226Z" fill="#79755d"></path><path d="M201.584,56.324c0,1.14.089,1.172.554,1.238l.217.032c.069.075.06.268-.02.311-.434-.021-.88-.032-1.314-.032s-.9.011-1.335.032c-.079-.043-.088-.236-.02-.311l.218-.032c.465-.066.553-.1.553-1.238v-4c0-1.139-.088-1.172-.553-1.237l-.218-.032c-.068-.076-.059-.269.02-.312q.653.032,1.335.032c.434,0,.88-.011,1.314-.032.08.043.089.236.02.312l-.217.032c-.465.065-.554.1-.554,1.237Z" fill="#79755d"></path><path d="M206.1,55.237c-.257,0-.247,0-.335.291l-.407,1.291c-.2.635-.158.656.208.72l.287.055c.07.075.06.268-.02.311-.315-.021-.642-.021-1.047-.032-.327,0-.633.011-.979.032a.256.256,0,0,1-.01-.311l.3-.055c.288-.053.4-.139.545-.494.118-.28.276-.732.484-1.313l1.354-3.83a2.005,2.005,0,0,0,.188-.786c.345-.074.672-.515.692-.515a.2.2,0,0,1,.169.085c.157.484.286.99.444,1.475l1.423,4.507c.228.72.276.786.781.894l.149.032a.249.249,0,0,1,.01.311c-.407-.021-.771-.032-1.285-.032-.426,0-.86.021-1.207.032a.259.259,0,0,1-.029-.311l.216-.032c.356-.055.407-.119.259-.572l-.465-1.462c-.09-.291-.129-.291-.405-.291Zm1.187-.484c.277,0,.316-.021.238-.28l-.417-1.291a7.068,7.068,0,0,0-.276-.85h-.02c-.039.076-.128.344-.3.85l-.416,1.259c-.1.312-.078.312.159.312Z" fill="#79755d"></path><path d="M213.851,56.1a2.031,2.031,0,0,0,.169,1.107c.118.151.276.238,1.067.238,1.1,0,1.255-.055,1.711-1.162a.249.249,0,0,1,.306.064,11.01,11.01,0,0,1-.415,1.56c-.417-.021-1.266-.032-2.373-.032h-1.028c-.5,0-1,.011-1.414.032-.079-.043-.109-.258-.019-.311l.3-.055c.465-.085.553-.1.553-1.215v-4c0-1.119-.088-1.151-.553-1.226l-.277-.043c-.069-.053-.069-.269.02-.312.494.021.938.032,1.394.032.434,0,.88-.011,1.314-.032a.225.225,0,0,1,.02.312l-.217.043c-.465.087-.554.107-.554,1.226Z" fill="#79755d"></path><path d="M75.46,15.508c0,.505.069.88.327,1.01a.184.184,0,0,1-.014.217,2.718,2.718,0,0,0-.652.115,12.491,12.491,0,0,1-2.637.39A5.507,5.507,0,0,1,68.3,15.652a4.91,4.91,0,0,1-1.2-3.3,5.016,5.016,0,0,1,1.25-3.39,5.611,5.611,0,0,1,4.338-1.7,9.292,9.292,0,0,1,1.807.216,5.187,5.187,0,0,0,.87.13c.014.433.109,1.169.178,2.294a.284.284,0,0,1-.436.029A2.463,2.463,0,0,0,72.5,7.834c-2.392,0-3.547,1.832-3.547,4.285a5.322,5.322,0,0,0,.979,3.317,3.37,3.37,0,0,0,2.623,1.226c.653,0,1.047-.115,1.211-.332a1.951,1.951,0,0,0,.121-.908V14.9c0-1.023-.012-1.11-.924-1.269l-.489-.086a.324.324,0,0,1,.014-.419c.529.029,1.183.043,2.12.043.612,0,1.074-.014,1.659-.043a.274.274,0,0,1,.027.419l-.245.042c-.5.073-.585.2-.585,1.083Z" fill="#79755d"></path><path d="M80.65,9.652c0-1.385-.012-1.558-.652-1.63l-.353-.044a.3.3,0,0,1,.014-.4c.856-.087,2.011-.13,3.127-.13a5.419,5.419,0,0,1,2.582.49,2.283,2.283,0,0,1,1.2,2.106,2.473,2.473,0,0,1-1.631,2.28c-.083.043-.055.158,0,.245A16.708,16.708,0,0,0,87.34,16.3a1.684,1.684,0,0,0,.937.447.273.273,0,0,1,.028.288,3.484,3.484,0,0,1-.9.087c-1.3,0-2.011-.562-2.841-1.9-.367-.606-.748-1.4-1.074-1.962a.752.752,0,0,0-.843-.49c-.408,0-.421.014-.421.317v1.846c0,1.529.122,1.573.762,1.659l.3.043c.095.1.081.361-.027.419-.6-.029-1.21-.044-1.808-.044s-1.211.015-1.835.044a.3.3,0,0,1-.028-.419l.3-.043c.64-.086.761-.13.761-1.659Zm1.578,2.077c0,.462,0,.49.653.49,1.332,0,1.944-.692,1.944-2.063a1.948,1.948,0,0,0-1.876-2.134c-.708,0-.721.043-.721.706Z" fill="#79755d"></path><path d="M100.061,12.277a4.751,4.751,0,0,1-4.786,4.963,4.676,4.676,0,0,1-4.84-4.862A4.829,4.829,0,0,1,95.3,7.257C98.442,7.257,100.061,9.652,100.061,12.277Zm-7.777-.317c0,1.99.8,4.7,3.128,4.7,1.548,0,2.8-1.226,2.8-4.125,0-2.179-.925-4.7-3.087-4.7C93.766,7.834,92.284,8.888,92.284,11.96Z" fill="#79755d"></path><path d="M104.571,9.565c0-1.529-.123-1.572-.761-1.673l-.232-.044a.3.3,0,0,1,.028-.4c.543.028,1.155.043,1.754.043s1.224-.015,1.821-.043a.3.3,0,0,1,.027.4l-.3.044c-.638.1-.761.144-.761,1.673v3.3c0,1.99.571,3.663,2.461,3.663,1.78,0,2.515-1.428,2.515-3.62v-1.8a8.765,8.765,0,0,0-.258-2.842.861.861,0,0,0-.68-.375l-.271-.044c-.123-.1-.109-.36.026-.4.462.028.979.043,1.51.043.57,0,.937-.015,1.44-.043a.289.289,0,0,1,.028.4l-.3.073c-.258.057-.5.115-.6.346a11.091,11.091,0,0,0-.19,2.842v1.716a5.007,5.007,0,0,1-.9,3.332,3.459,3.459,0,0,1-2.665,1.083,3.7,3.7,0,0,1-2.8-.924,4.264,4.264,0,0,1-.9-3.087Z" fill="#79755d"></path><path d="M117.17,9.652c0-1.313-.012-1.529-.584-1.616l-.476-.058c-.095-.1-.095-.346.014-.4a23.406,23.406,0,0,1,3-.13,5.548,5.548,0,0,1,2.843.577,2.488,2.488,0,0,1,1.155,2.164,2.848,2.848,0,0,1-3.045,2.8,2.49,2.49,0,0,1-.341-.015.3.3,0,0,1-.04-.36,2.142,2.142,0,0,0,1.685-2.395,2,2,0,0,0-1.944-2.192c-.68,0-.692.043-.692.606v6.3c0,1.529.121,1.573.761,1.645l.5.057c.081.1.068.361-.028.419-.8-.029-1.414-.044-2.012-.044s-1.211.015-1.754.044c-.109-.058-.123-.317-.026-.419l.216-.028c.64-.1.761-.145.761-1.674Z" fill="#79755d"></path><path d="M127.4,9.565c0-1.529-.121-1.572-.761-1.673l-.216-.029c-.1-.1-.083-.36.026-.418.517.028,1.155.043,1.754.043h2.6c.87,0,1.659-.015,1.835-.043.055.245.136,1.385.218,2-.055.115-.327.144-.436.058-.216-.837-.42-1.2-.856-1.313a3.768,3.768,0,0,0-1.088-.13h-.911c-.583,0-.583.029-.583.851v2.438c0,.375.012.389.325.389h.652c1.183,0,1.415-.014,1.51-.634l.095-.491c.109-.1.367-.1.436.015-.014.389-.042.908-.042,1.442,0,.549.028,1.053.042,1.514-.069.1-.327.1-.436.015l-.095-.577c-.095-.606-.327-.634-1.51-.634h-.652c-.313,0-.325.028-.325.389v1.832a2.7,2.7,0,0,0,.23,1.5c.163.2.394.318,1.536.318,1.727.028,2.026-.39,2.5-1.558a.311.311,0,0,1,.436.086,9.781,9.781,0,0,1-.572,2.092c-.6-.029-1.768-.044-3.359-.044h-1.549c-.6,0-1.427.015-2.039.044-.109-.058-.123-.317-.028-.419l.5-.057c.64-.072.761-.116.761-1.645Z" fill="#79755d"></path><path d="M51.156,7.282a10.945,10.945,0,0,1,5.431,9.877s.548.434.685-.289.5-7.661.5-7.661A18.5,18.5,0,0,0,51.156,7.282Z" fill="#00324d"></path><path d="M26.968,7.186s8.945,1.638,8.945,12.431H36.6s.456-6.746.456-8.143C37.054,11.474,33.723,7.812,26.968,7.186Z" fill="#79755d"></path><path d="M28.109,26.121H39.062v.964s-1.871-.241-1.871,2.361.046,4.818.046,4.818S32.4,40.48,27.2,40.48c0,0,5.157-1.59,5.157-5.59,0-1.686-.045-1.975-.045-4.191s-1.095-3.614-2.83-3.614H28.109Z" fill="#79755d"></path><path d="M46.319,7.378a5.89,5.89,0,0,0-3.332,5.108c0,3.613,2.83,6.215,6.252,8s9.63,5.4,9.63,12.094-5.2,7.853-7.987,8.432c0,0,4.29-3.084,4.29-6.842s-4.518-7.517-8.4-9.589-7.53-4.962-7.53-9.877S44.174,7.282,46.319,7.378Z" fill="#00324d"></path><path d="M10.415,24.525c0,5.151,1.419,9.276,4.219,12.261a13.389,13.389,0,0,0,7.43,3.741,13.346,13.346,0,0,1-4.511-3.646c-2.711-2.936-4.475-7.185-4.475-12.751A18.933,18.933,0,0,1,17.5,11.561c1.569-1.818,2.851-3.471,4.72-4.229a13.272,13.272,0,0,0-7.663,4.492C11.809,15.024,10.415,19.3,10.415,24.525Z" fill="#79755d"></path><path d="M46.838,41a10.945,10.945,0,0,1-5.431-9.877s-.548-.434-.685.289-.5,7.661-.5,7.661A18.5,18.5,0,0,0,46.838,41Z" fill="#00324d"></path></svg> 