<?xml version="1.0" encoding="utf-8"?> <svg xmlns="http://www.w3.org/2000/svg" xmlns:xlink="http://www.w3.org/1999/xlink" version="1.1" id="layer" x="0px" y="0px" viewBox="0 0 652 652" style="enable-background:new 0 0 652 652;" xml:space="preserve"> <style type="text/css"> .st0{fill:#CCD5E0;} .st1{fill:none;stroke:#FBFFFF;stroke-width:1.9096;stroke-miterlimit:10;} .st2{fill:#002D62;} .st3{fill:#FFFFFF;} .st4{fill:#F37321;} .st5{fill:#022D63;} .st6{clip-path:url(#SVGID_2_);fill:#022D63;} .st7{clip-path:url(#SVGID_2_);fill:#042F64;} .st8{clip-path:url(#SVGID_2_);fill:#0B3266;} .st9{clip-path:url(#SVGID_2_);fill:#0D366A;} .st10{clip-path:url(#SVGID_2_);fill:#143A6D;} .st11{clip-path:url(#SVGID_2_);fill:#1B3D70;} .st12{clip-path:url(#SVGID_2_);fill:#1F4174;} .st13{clip-path:url(#SVGID_2_);fill:#264476;} .st14{clip-path:url(#SVGID_2_);fill:#2C4878;} .st15{clip-path:url(#SVGID_2_);fill:#324B7B;} .st16{clip-path:url(#SVGID_2_);fill:#375080;} .st17{clip-path:url(#SVGID_2_);fill:#3D5482;} .st18{clip-path:url(#SVGID_2_);fill:#425784;} .st19{clip-path:url(#SVGID_2_);fill:#465B88;} .st20{clip-path:url(#SVGID_2_);fill:#495F8B;} .st21{clip-path:url(#SVGID_2_);fill:#4E638D;} .st22{clip-path:url(#SVGID_2_);fill:#536790;} .st23{clip-path:url(#SVGID_2_);fill:#586B95;} .st24{clip-path:url(#SVGID_2_);fill:#5D6F97;} .st25{clip-path:url(#SVGID_2_);fill:#62739A;} .st26{clip-path:url(#SVGID_2_);fill:#67779C;} .st27{clip-path:url(#SVGID_2_);fill:#6B7BA1;} .st28{clip-path:url(#SVGID_2_);fill:#707FA3;} .st29{clip-path:url(#SVGID_2_);fill:#7684A7;} .st30{clip-path:url(#SVGID_2_);fill:#7A88AB;} .st31{clip-path:url(#SVGID_2_);fill:#808CAE;} .st32{clip-path:url(#SVGID_2_);fill:#8391B0;} .st33{clip-path:url(#SVGID_2_);fill:#8895B3;} .st34{clip-path:url(#SVGID_2_);fill:#8C99B7;} .st35{clip-path:url(#SVGID_2_);fill:#929FBB;} .st36{clip-path:url(#SVGID_2_);fill:#97A3BD;} .st37{clip-path:url(#SVGID_2_);fill:#9BA7C2;} .st38{fill:#A0ABC4;} .st39{clip-path:url(#SVGID_4_);fill:#A5B0C7;} .st40{fill:#AAB4CA;} .st41{fill:#B3BBCF;} .st42{fill:#828EB0;} </style> <path class="st0" d="M391.7,363.1c-128.1,63.4-246.4,86.2-264.3,50.5c-17.2-35.7,72.1-115.8,200.8-179.9 c128.1-63.4,246.4-86.2,264.3-50.5C609.8,219,519.8,299.1,391.7,363.1 M324.6,227c-142.3,70.2-242.1,159.5-223,199.6 c19.7,39.4,151.5,14.2,293.8-56.7c142.3-70.2,242.1-159.5,222.4-199.6C598.7,130.9,466.9,156.2,324.6,227z"></path> <path class="st1" d="M324.6,227c-142.3,70.2-242.1,159.5-223,199.6c19.7,39.4,151.5,14.2,293.8-56.7 c142.3-70.2,242.1-159.5,222.4-199.6C598.7,130.9,466.9,156.2,324.6,227z"></path> <path class="st1" d="M391.7,363.1c-128.1,63.4-246.4,86.2-264.3,50.5c-17.2-35.7,72.1-115.8,200.8-179.9 c128.1-63.4,246.4-86.2,264.3-50.5C609.8,219,519.8,299.1,391.7,363.1z"></path> <path class="st2" d="M54.8,255.9c-9.9,0-17.9-4.3-23.4-13.6c-5.5-8.6-8.6-20.3-8.6-34.5c0-14.8,3.7-27.7,9.9-37 c6.8-9.9,15.4-14.8,25.3-14.8c2.5,0,4.3,0,6.2,0.6c1.2,0.6,3.1,1.8,4.9,3.1h0.6l4.9-3.7h8v35.1h-9.9l-0.6-1.8 c-1.8-8.6-4.3-14.8-7.4-19.1c-2.5-3.1-4.3-4.9-6.8-4.9c-1.2,0-4.3,0-6.8,7.4c-1.8,6.2-2.5,16.6-2.5,32v2.5c0,22.8,0.6,31.4,1.8,33.9 c1.2,4.3,3.7,4.9,5.5,4.9c1.8,0,3.7-0.6,4.9-2.5c1.2-2.5,1.8-6.2,1.8-11.1v-15.4c0-1.8-0.6-2.5-0.6-3.1c-0.6,0-1.8-0.6-4.9-1.2h-1.8 v-9.2h33.3v9.2h-2.5c-0.6,0-1.8,0.6-1.8,0.6c-0.6,0.6-0.6,1.2-0.6,3.7v38.2h-8l-4.9-4.3c-2.5,1.8-4.3,2.5-6.8,3.7 C60.9,255.3,57.8,255.9,54.8,255.9"></path> <path class="st3" d="M84.9,153.7H73.2l-1.2,1.2l-3.1,1.8c-1.2-0.6-3.1-1.8-4.3-1.8c-2.5-1.2-4.3-1.2-6.8-1.2 c-10.5,0-19.7,4.9-27.1,16c-6.8,9.9-10.5,22.8-10.5,38.2c0,14.8,3.1,27.1,8.6,35.7c6.8,9.9,15.4,14.8,25.9,14.8 c3.7,0,6.8-0.6,9.9-1.8c2.5-0.6,3.7-1.2,5.5-2.5l3.1,2.5l1.2,1.2h11.7v-40.7c0-0.6,0-1.2,0-1.8c0,0,0,0,0.6,0l4.3-0.6v-13.6H52.9 v13.6l4.3,0.6c1.8,0,2.5,0.6,3.1,0.6c0,0,0,0.6,0,1.2v15.4c0,6.2-1.2,8.6-1.8,9.9c-0.6,0.6-1.2,1.2-2.5,1.2c-1.2,0-2.5,0-3.1-3.1 c-0.6-1.8-1.8-9.2-1.8-33.3v-2.5c0-14.8,0.6-25.3,2.5-31.4c1.2-3.7,2.5-5.5,4.3-5.5c1.8,0,3.7,2.5,4.9,4.3c2.5,3.7,4.9,9.9,6.8,17.9 l1.2,3.7h14.2v-35.1 M80,158.6v30.2h-5.5c-2.5-8.6-4.9-15.4-7.4-19.7c-3.1-4.3-6.2-6.2-9.2-6.2c-4.3,0-7.4,3.1-9.2,9.2 c-1.8,6.2-2.5,17.2-2.5,32.6v2.5c0,18.5,0.6,30.2,1.8,35.1c1.2,4.3,3.7,6.2,8,6.2c3.1,0,5.5-1.2,6.8-3.7c1.8-2.5,2.5-6.8,2.5-12.3 v-15.4c0-2.5-0.6-3.7-1.8-4.9c-1.2-1.2-3.1-1.8-5.5-1.8v-4.3h28.3v4.3c-1.8,0-3.1,0.6-3.7,1.8c-1.2,1.2-1.2,2.5-1.2,4.9v35.7h-4.9 l-5.5-4.9c-2.5,1.8-4.9,3.1-7.4,4.3c-2.5,0.6-5.5,1.2-8.6,1.2c-8.6,0-16-4.3-21.6-12.3c-4.9-8-8-19.1-8-33.3 c0-14.8,3.1-26.5,9.9-35.7c6.2-9.2,13.6-13.6,22.8-13.6c1.8,0,3.7,0,4.9,0.6c1.8,0.6,3.7,1.8,4.9,3.1h3.1l4.3-3.7H80z"></path> <path class="st2" d="M97.3,254.1v-8.6h2.5c2.5-0.6,3.1-0.6,3.1-1.2c0,0,0.6-0.6,0.6-2.5v-65.3c0-1.8-0.6-2.5-0.6-2.5 c0-0.6-1.2-1.2-3.1-1.2h-2.5v-8.6h35.1v8.6h-2.5c-2.5,0-3.7,0.6-3.7,1.2c-0.6,0-0.6,1.2-0.6,2.5v65.9c0,1.8,0,2.5,0,2.5 s0.6,0.6,2.5,0.6c3.7,0,7.4-1.8,10.5-5.5c3.1-3.7,6.2-9.2,9.2-17.2l0.6-1.2h8.6l-2.5,32.6"></path> <path class="st3" d="M134.8,161.7h-40v12.9l4.9,0.6c0,0,0.6,0,1.2,0.6c0,0,0,0,0,0.6v65.3c0,0.6,0,0.6,0,0.6c-0.6,0-1.2,0.6-1.2,0.6 l-4.9,0.6v12.9H157l0.6-4.3l1.2-28.3l0.6-5.5h-12.9l-1.2,3.7c-2.5,7.4-5.5,12.9-8.6,16.6c-2.5,2.5-5.5,4.3-8.6,4.3 c0-0.6,0-0.6,0-0.6v-65.9c0-0.6,0-0.6,0-0.6s0.6-0.6,2.5-0.6h4.3v-8.6 M129.9,166.6v3.7c-2.5,0-4.3,0.6-5.5,1.8 c-1.2,0.6-1.8,2.5-1.8,4.3v65.9c0,1.8,0.6,3.7,1.2,4.3c1.2,0.6,2.5,1.2,4.3,1.2c4.3,0,8.6-1.8,12.3-6.2c3.7-3.7,6.8-9.9,9.9-17.9 h3.7l-1.2,27.7h-53v-3.7c2.5-0.6,3.7-1.2,4.9-1.8c0.6-0.6,1.2-2.5,1.2-4.3v-65.3c0-1.8-0.6-3.7-1.2-4.3c-1.2-1.2-2.5-1.8-4.9-1.8 v-3.7H129.9z"></path> <path class="st2" d="M195.8,171.6c-1.2,0-4.3,0-6.2,6.8c-1.2,4.9-2.5,15.4-2.5,30.8s1.2,25.3,2.5,30.8c1.8,6.8,4.9,6.8,6.2,6.8 c1.2,0,4.3,0,6.2-6.8c1.2-5.5,2.5-15.4,2.5-30.8s-1.2-25.9-2.5-30.8C200.1,171.6,197.1,171.6,195.8,171.6 M195.8,255.9 c-3.1,0-6.2-0.6-9.2-2.5c-3.1-1.2-6.2-3.1-8.6-4.9c-4.9-4.9-8.6-10.5-11.1-17.2c-2.5-6.8-3.7-14.2-3.7-22.2c0-8,1.2-15.4,3.7-22.2 c2.5-6.8,6.2-12.3,11.1-17.2c2.5-1.8,5.5-3.7,8-4.9c3.1-1.2,6.8-2.5,9.9-2.5c3.1,0,6.2,1.2,9.2,2.5c3.1,1.2,6.2,3.1,8.6,4.9 c4.3,4.9,8,10.5,10.5,17.2c2.5,6.8,3.7,14.2,3.7,22.2c0,8-1.2,15.4-3.7,22.2c-2.5,6.8-6.2,12.3-11.1,17.2c-2.5,1.8-4.9,3.7-8,4.9 C202,255.3,198.9,255.9,195.8,255.9z"></path> <path class="st3" d="M195.8,244.2c-0.6,0-2.5,0-3.7-4.9c-1.2-3.7-2.5-11.7-2.5-30.2s1.2-27.1,2.5-30.2c1.2-4.9,3.1-4.9,3.7-4.9 c0.6,0,2.5,0,3.7,4.9c0.6,3.1,2.5,11.7,2.5,30.2c0,14.8-1.2,25.3-2.5,30.2C198.3,244.2,196.4,244.2,195.8,244.2 M195.8,159.9 c-3.7,0-7.4,0.6-10.5,2.5c-3.1,1.2-6.2,3.1-9.2,6.2c-4.9,4.9-8.6,10.5-11.1,17.9c-3.1,6.8-4.3,14.2-4.3,22.8s1.2,16,4.3,22.8 c2.5,6.8,6.2,12.9,11.1,17.9c3.1,3.1,6.2,4.9,9.2,6.2c3.1,1.8,6.8,2.5,10.5,2.5c3.7,0,6.8-0.6,10.5-2.5c3.1-1.2,6.2-3.1,8.6-6.2 c4.9-4.3,9.2-10.5,11.7-17.9c2.5-6.8,3.7-14.8,3.7-22.8c0-8.6-1.2-16-3.7-22.8c-2.5-7.4-6.8-13.6-11.7-17.9 c-2.5-3.1-5.5-4.9-8.6-6.2C202.6,160.5,199.5,159.9,195.8,159.9z M195.8,249.2c3.7,0,6.8-3.1,8.6-8.6c1.2-5.5,2.5-16,2.5-31.4 s-1.2-25.9-2.5-32c-1.8-5.5-4.9-8-8.6-8c-4.3,0-6.8,2.5-8.6,8c-1.2,6.2-2.5,16.6-2.5,32s1.2,25.9,2.5,31.4 C189,246.1,191.5,249.2,195.8,249.2z M195.8,165.4c3.1,0,5.5,0,8.6,1.2c2.5,1.2,4.9,3.1,7.4,4.9c4.3,4.3,8,9.9,9.9,16 c2.5,6.8,3.7,13.6,3.7,21.6s-1.2,14.8-3.7,20.9c-1.8,6.8-5.5,12.3-9.9,16.6c-2.5,1.8-4.9,3.7-7.4,4.9c-3.1,1.2-5.5,1.8-8.6,1.8 c-3.1,0-5.5-0.6-8.6-1.8c-2.5-1.2-4.9-3.1-7.4-4.9c-4.3-4.9-8-10.5-10.5-16.6c-2.5-6.2-3.7-12.9-3.7-20.9s1.2-14.8,3.7-20.9 c2.5-6.8,6.2-11.7,10.5-16.6c2.5-1.8,4.9-3.7,7.4-4.9C189.7,165.4,192.7,165.4,195.8,165.4z"></path> <path class="st2" d="M263.6,172.8c0,0.6,0,1.2,0,1.8V203c4.3,0,6.8-1.2,8.6-3.1c1.8-2.5,2.5-6.2,2.5-11.7c0-8-0.6-11.1-1.8-12.9 c-1.2-1.2-3.7-2.5-7.4-2.5C264.2,172.8,264.2,172.8,263.6,172.8 M263.6,241.8c0,2.5,0.6,3.1,0.6,3.1s0.6,0.6,2.5,0.6 c3.7,0,6.2-1.2,7.4-3.1c1.8-2.5,3.1-6.8,3.1-11.7c0-6.8-1.2-11.7-3.7-14.8c-1.8-2.5-5.5-3.7-9.9-4.3V241.8z M235.9,254.1v-8.6h2.5 c1.8-0.6,2.5-1.2,2.5-1.2s0.6-0.6,0.6-2.5v-65.3c0-1.8,0-2.5-0.6-2.5c0-0.6-0.6-1.2-2.5-1.2h-2.5v-8.6h29.6c9.9,0,17.9,1.8,24,5.5 c5.5,3.7,8.6,9.2,8.6,16.6c0,6.2-2.5,11.1-6.8,15.4c-2.5,1.8-5.5,3.7-9.2,5.5c4.3,1.2,8,3.1,11.1,5.5c5.5,4.3,8,9.9,8,16 c0,8.6-3.1,14.8-9.2,19.1c-6.2,4.3-14.2,6.2-25.3,6.2H235.9z"></path> <path class="st3" d="M266,243c0-0.6,0-0.6,0-1.2v-27.1c2.5,0.6,4.3,1.8,5.5,3.1c1.2,1.2,3.1,4.9,3.1,12.9c0,5.5-1.2,8.6-2.5,9.9 c-0.6,1.2-1.8,2.5-5.5,2.5C266,243,266,243,266,243 M266,200.5v-25.3c1.8,0,3.7,0.6,4.9,1.8c0,0.6,1.2,3.1,1.2,11.1 c0,6.2-1.2,9.2-1.8,9.9C269.1,199.3,267.9,199.9,266,200.5z M265.4,161.7h-32v12.9l4.3,0.6c0.6,0,1.2,0,1.2,0.6c0,0,0,0,0,0.6v65.3 c0,0.6,0,0.6,0,0.6s-0.6,0.6-1.2,0.6l-4.3,0.6v12.9h33.3c11.7,0,20.3-1.8,26.5-6.8c6.8-4.9,10.5-11.7,10.5-20.9 c0-7.4-3.1-13.6-8.6-17.9c-1.8-1.8-4.3-3.1-6.8-4.3c1.8-0.6,3.1-1.8,4.9-3.1c4.9-4.9,7.4-10.5,7.4-17.2c0-8-3.1-14.2-9.9-19.1 C284.5,163.5,275.9,161.7,265.4,161.7z M266.7,247.9c4.3,0,7.4-1.2,9.9-4.3c1.8-3.1,3.1-7.4,3.1-12.9c0-8-1.2-12.9-4.3-16.6 c-3.1-3.1-7.4-4.9-14.2-4.9v32.6c0,1.8,0.6,3.7,1.2,4.9C263,247.3,264.2,247.9,266.7,247.9z M261.1,205.4h1.8 c4.9,0,8.6-1.2,11.1-3.7c2.5-3.1,3.7-7.4,3.7-13.6c0-6.8-1.2-11.7-3.1-14.2c-1.8-2.5-4.9-3.7-9.2-3.7c-1.8,0-3.1,0.6-3.7,1.2 c-0.6,0-0.6,1.2-0.6,3.1V205.4z M265.4,166.6c9.9,0,17.2,1.8,22.2,4.9c5.5,3.7,8,8.6,8,14.8c0,4.9-1.8,9.9-6.2,13.6 c-4.3,3.7-9.9,6.2-17.9,7.4c8.6,1.2,15.4,3.7,20.3,7.4c4.3,3.7,6.8,8.6,6.8,14.2c0,7.4-3.1,12.9-8.6,17.2 c-4.9,3.7-12.9,5.5-23.4,5.5h-28.3v-3.7c2.5-0.6,3.7-1.2,4.3-1.8c1.2-0.6,1.2-2.5,1.2-4.3v-65.3c0-1.8,0-3.7-1.2-4.3 c-0.6-1.2-1.8-1.8-4.3-1.8v-3.7H265.4z"></path> <path class="st2" d="M339.3,220.8l-5.5-20.9l-5.5,20.9 M339.3,254.1v-8.6h2.5c1.8,0,2.5-0.6,3.1-0.6c0,0,0,0,0-0.6 c0-0.6,0-1.2,0-1.8c0-0.6-0.6-1.2-0.6-1.8l-2.5-9.9h-16l-2.5,8.6c0,0,0,0.6,0,1.2c-0.6,0.6-0.6,1.2-0.6,1.8c0,1.2,0.6,1.8,1.2,1.8 c0,0.6,1.2,1.2,3.7,1.2h2.5v8.6h-25.3v-8.6h1.8c1.2,0,2.5,0,3.7-1.8c1.2-1.2,1.8-3.7,3.1-6.8l19.7-73.3h12.9l19.1,74.5 c1.2,3.7,2.5,5.5,3.1,6.2c0.6,0.6,1.2,1.2,3.1,1.2h2.5v8.6H339.3z"></path> <path class="st3" d="M331.3,218.4l2.5-8.6l1.8,8.6 M348,160.5h-16.6l-1.2,4.3L311,236.2c-1.2,3.7-1.8,4.9-2.5,6.2 c-1.2,0.6-1.2,0.6-1.8,0.6h-4.3v13.6h30.2v-12.9l-4.9-0.6c-1.2,0-1.8,0-1.8-0.6c-0.6,0-0.6,0-0.6,0c0-0.6,0.6-1.2,0.6-1.2 c0-0.6,0-1.2,0-1.2l1.8-6.8H340l1.8,8c0,0.6,0.6,1.2,0.6,1.8c-0.6,0-0.6,0-0.6,0h-4.9v13.6h39.4V243h-4.9c-1.2,0-1.2,0-1.2-0.6 c-0.6,0-1.2-1.2-2.5-4.9l-19.1-72.7L348,160.5z M325.2,223.3h17.2l-8.6-33.3L325.2,223.3z M343.7,166l19.7,73.3 c0.6,3.1,1.8,5.5,3.1,6.8c1.2,1.2,2.5,1.8,4.9,1.8v3.7h-29.6v-3.7c1.8,0,3.1,0,4.3-0.6c0.6-0.6,1.2-1.8,1.2-3.1c0-0.6,0-1.2,0-1.8 c0-0.6-0.6-1.8-0.6-2.5l-3.1-11.7h-20.3l-2.5,10.5c0,0.6,0,1.2-0.6,1.8c0,0.6,0,0.6,0,1.8c0,1.8,0.6,3.1,1.8,4.3 c1.2,0.6,3.1,1.2,5.5,1.2v3.7h-20.3v-3.7c1.8,0,3.1-0.6,4.9-2.5c1.2-1.8,2.5-4.3,3.7-8L335,166H343.7z"></path> <path class="st2" d="M376.3,254.1v-8.6h1.8c2.5-0.6,3.1-0.6,3.1-1.2c0,0,0.6-0.6,0.6-2.5v-65.3c0-1.8-0.6-2.5-0.6-2.5 c0-0.6-0.6-1.2-3.1-1.2h-1.8v-8.6h35.1l-0.6,8.6H409c-3.1,0-4.3,0.6-4.3,1.2c-0.6,0-0.6,1.2-0.6,2.5v65.9c0,1.8,0,2.5,0,2.5 c0.6,0,1.2,0.6,2.5,0.6c4.3,0,7.4-1.8,10.5-5.5c3.7-3.7,6.8-9.2,9.2-17.2l0.6-1.2h8.6l-1.8,32.6"></path> <path class="st3" d="M413.9,161.7h-40v12.9l4.3,0.6c0.6,0,0.6,0,1.2,0.6c0,0,0,0,0,0.6v65.3c0,0.6,0,0.6,0,0.6 c-0.6,0-0.6,0.6-1.2,0.6l-4.3,0.6v12.9h62.2v-4.3l1.8-28.3v-5.5H425l-1.2,3.7c-2.5,7.4-5.5,12.9-8.6,16.6c-2.5,2.5-5.5,4.3-8.6,4.3 c0-0.6,0-0.6,0-0.6v-65.9c0-0.6,0-0.6,0-0.6c0.6,0,1.2-0.6,2.5-0.6h4.3v-8.6 M408.3,166.6v3.7c-2.5,0-4.3,0.6-5.5,1.8 c-0.6,0.6-1.2,2.5-1.2,4.3v65.9c0,1.8,0,3.7,1.2,4.3c0.6,0.6,1.8,1.2,3.7,1.2c4.9,0,8.6-1.8,12.3-6.2c3.7-3.7,6.8-9.9,9.9-17.9h4.3 l-1.8,27.7h-52.4v-3.7c1.8-0.6,3.7-1.2,4.3-1.8c0.6-0.6,1.2-2.5,1.2-4.3v-65.3c0-1.8-0.6-3.7-1.2-4.3c-0.6-1.2-2.5-1.8-4.3-1.8v-3.7 H408.3z"></path> <path class="st4" d="M195.2,319.4l-6.2-24l-6.2,24 M195.2,356.4v-9.2h2.5c1.8,0,3.1-0.6,3.1-0.6s0.6,0,0.6-1.2c0-0.6,0-1.2-0.6-1.8 c0-0.6,0-1.2,0-1.8l-3.1-11.7h-17.2l-2.5,9.9c0,0.6,0,1.2-0.6,1.8c0,0.6,0,0.6,0,1.2c0,1.8,0.6,2.5,1.2,3.1c0,0.6,1.2,1.2,4.3,1.2 h2.5v9.2h-27.1v-9.2h2.5c0.6,0,1.8,0,3.7-1.8c1.2-1.8,1.8-4.3,3.1-8l20.9-81.3H202l20.9,83.2c0.6,3.7,1.8,5.5,2.5,6.8 c1.2,0.6,1.8,1.2,3.7,1.2h2.5v9.2H195.2z"></path> <path class="st3" d="M186,316.9l3.1-11.1l3.1,11.1 M203.8,252.9h-17.2l-1.2,4.3L165,336.6c-1.2,4.3-2.5,6.2-3.1,6.8 c-0.6,1.2-1.2,1.2-1.2,1.2h-4.9v14.2h32v-13.6l-4.9-0.6c-1.8,0-2.5-0.6-2.5-0.6c-0.6,0-0.6-0.6-0.6-1.2c0,0,0-0.6,0-1.2 c0.6-0.6,0.6-0.6,0.6-1.2l1.8-7.4h13.6l2.5,9.2c0,0.6,0,1.2,0,1.8c0,0,0,0.6,0.6,0.6c-0.6,0-1.2,0-1.2,0h-4.9v14.2H234v-14.2h-4.9 c-1.2,0-1.2-0.6-1.8-0.6c0-0.6-1.2-1.8-1.8-5.5l-20.3-81.3L203.8,252.9z M179.8,321.9h18.5l-9.2-37L179.8,321.9z M200.1,258.4 l20.3,81.3c0.6,3.7,1.8,6.2,3.1,7.4c1.2,1.8,3.1,2.5,5.5,2.5v4.3h-31.4v-4.3c1.8,0,3.7-0.6,4.3-1.2c1.2-0.6,1.8-1.8,1.8-3.1 c0-0.6,0-1.2-0.6-1.8c0-1.2,0-1.8,0-2.5l-3.7-13.6h-20.9l-3.1,11.7c0,0.6-0.6,1.2-0.6,1.8c0,0.6,0,1.2,0,1.8c0,2.5,0.6,3.7,1.8,4.9 c1.2,1.2,3.1,1.8,6.2,1.8v4.3h-22.2v-4.3c1.8,0,3.7-1.2,5.5-3.1c1.2-1.8,2.5-4.9,3.7-8.6l20.3-79.5H200.1z"></path> <path class="st4" d="M235.2,356.4v-8.6l2.5-0.6c1.8,0,2.5-0.6,3.1-0.6c0-0.6,0-1.2,0-3.1v-67.1c0-2.5,0-3.1,0-3.1 c-0.6,0-1.2-0.6-3.1-1.2h-2.5v-8.6h35.1l-0.6,8.6h-1.8c-3.1,0.6-4.3,1.2-4.3,1.2c-0.6,0.6-0.6,1.2-0.6,3.1V344 c0,2.5,0.6,2.5,0.6,2.5s0,0.6,1.8,0.6c3.7,0,7.4-1.8,10.5-4.9c3.1-4.3,6.2-9.9,9.2-18.5l0.6-1.2h8l-1.8,33.9"></path> <path class="st3" d="M272.8,260.9h-40v13.6h4.3c0.6,0.6,1.2,0.6,1.2,0.6s0,0.6,0,1.2v67.1c0,0.6,0,0.6,0,1.2c0,0-0.6,0-1.2,0 l-4.3,0.6v13.6h61.6l0.6-4.9l1.2-29l0.6-4.9h-12.9l-1.2,3.1c-3.1,8-5.5,13.6-8.6,17.2c-2.5,3.1-5.5,4.3-8.6,4.3v-68.4 c0-0.6,0-1.2,0-1.2c0.6,0,1.2,0,2.5-0.6h4.3v-8.6 M267.3,265.8v3.7c-2.5,0.6-4.3,1.2-5.5,1.8c-0.6,1.2-1.2,2.5-1.2,4.9V344 c0,2.5,0,3.7,1.2,4.3c0.6,1.2,1.8,1.2,3.7,1.2c4.9,0,8.6-1.8,12.3-6.2c3.7-3.7,6.8-10.5,9.9-18.5h3.7l-1.8,29h-51.7v-4.3 c2.5,0,3.7-0.6,4.9-1.8c0.6-0.6,1.2-1.8,1.2-4.3v-67.1c0-2.5-0.6-3.7-1.2-4.9c-1.2-0.6-2.5-1.2-4.9-1.8v-3.7H267.3z"></path> <path class="st4" d="M328.9,272.6c0,0,0,0.6,0,3.1v30.2c4.3,0,7.4-1.2,8.6-3.1c1.2-1.8,3.1-5.5,3.1-14.2c0-6.2-0.6-10.5-2.5-12.9 c-1.8-2.5-3.7-3.7-7.4-3.7C329.5,272,328.9,272.6,328.9,272.6 M300.5,356.4v-9.2h1.8c3.1,0,3.7-0.6,3.7-1.2c0.6,0,0.6-0.6,0.6-2.5 v-67.1c0-2.5,0-3.1-0.6-3.1c0,0-0.6-0.6-2.5-1.2h-2.5v-8.6h28.3c11.1,0,19.1,1.8,25.3,6.8c6.2,4.3,9.2,11.1,9.2,19.1 c0,8-3.1,14.8-9.2,19.1c-6.2,4.9-14.2,6.8-24.6,6.8c-0.6,0-1.2,0-1.2,0v28.3c0,1.8,0.6,2.5,0.6,3.1c0,0,0.6,0.6,3.1,0.6h2.5v9.2 H300.5z"></path> <path class="st3" d="M331.3,303.4v-27.7c0-0.6,0-0.6,0-1.2c2.5,0.6,3.7,1.2,4.3,2.5c1.2,1.8,2.5,4.9,2.5,11.7 c0,8.6-1.8,11.7-2.5,12.9C335,302.1,333.2,302.8,331.3,303.4 M329.5,260.9h-30.8v13.6h4.3c0.6,0.6,1.2,0.6,1.2,0.6s0,0.6,0,1.2v67.1 c0,0.6,0,0.6,0,1.2c-0.6,0-0.6,0-1.8,0l-4.3,0.6v13.6h39.4v-13.6l-4.3-0.6c-1.2,0-1.8,0-1.8,0c0-0.6,0-0.6,0-1.2v-25.9 c10.5,0,19.1-2.5,25.3-7.4c6.8-4.9,10.5-12.3,10.5-20.9c0-9.2-3.7-16-10.5-21.6C349.8,263.3,341.2,260.9,329.5,260.9z M326.4,308.3 h1.2c6.2,0,9.9-1.2,12.3-3.7c1.8-3.1,3.1-8.6,3.1-16c0-6.8-1.2-11.1-3.1-14.2c-1.8-3.1-4.9-4.9-9.2-4.9c-1.2,0-3.1,0.6-3.7,1.2 c-0.6,0.6-0.6,2.5-0.6,4.9V308.3z M329.5,265.8c10.5,0,18.5,1.8,24,6.2c5.5,4.3,8,9.9,8,17.2c0,7.4-2.5,12.9-8,17.2 c-5.5,4.3-13.6,6.2-23.4,6.2c-1.2,0-1.8,0-2.5,0s-1.2,0-1.2,0v30.8c0,2.5,0,3.7,1.2,4.9c0.6,0.6,2.5,1.2,4.9,1.2v4.3H303v-4.3 c2.5,0,3.7-0.6,4.9-1.8c1.2-0.6,1.2-1.8,1.2-4.3v-67.1c0-2.5,0-3.7-1.2-4.9c-0.6-0.6-1.8-1.2-4.3-1.8v-3.7H329.5z"></path> <path class="st4" d="M404.6,356.4v-8.6l2.5-0.6c1.8,0,2.5-0.6,3.1-0.6c0-0.6,0-1.2,0-3.1v-29.6h-11.1v29.6c0,2.5,0.6,3.1,0.6,3.1 s0.6,0.6,2.5,0.6l2.5,0.6V356.4h-33.3v-8.6l2.5-0.6c1.8,0,3.1-0.6,3.1-0.6c0-0.6,0.6-1.2,0.6-3.1v-67.1c0-2.5-0.6-3.1-0.6-3.1 c-0.6,0-1.2-0.6-3.1-1.2h-2.5v-8.6h33.3v8.6h-2.5c-1.8,0.6-2.5,1.2-2.5,1.2s-0.6,0.6-0.6,3.1v27.1h11.1v-27.1c0-2.5,0-3.1,0-3.1 c-0.6,0-1.2-0.6-3.1-1.2h-2.5v-8.6h33.3v8.6h-2.5c-1.8,0.6-2.5,1.2-2.5,1.2s-0.6,0.6-0.6,3.1v67.1c0,2.5,0.6,3.1,0.6,3.1 s0.6,0.6,2.5,0.6l2.5,0.6v8.6"></path> <path class="st3" d="M401.6,316.3h6.2v27.1c0,0.6,0,0.6,0,1.2h-0.6l-2.5,0.6l-1.8-0.6c-0.6,0-0.6,0-1.2,0c0-0.6,0-0.6,0-1.2 M401.6,275c0.6,0,0.6-0.6,1.2-0.6h4.3c0,0.6,0.6,0.6,0.6,0.6s0,0.6,0,1.2v24.6h-6.2v-24.6C401.6,275.7,401.6,275,401.6,275z M440.4,260.9h-71.5v13.6h4.9c0.6,0.6,0.6,0.6,0.6,0.6c0.6,0,0.6,0.6,0.6,1.2v67.1c0,0.6,0,0.6,0,1.2c-0.6,0-0.6,0-1.2,0l-4.9,0.6 v13.6h71.5v-13.6l-4.3-0.6c-0.6,0-1.2,0-1.2,0c0-0.6,0-0.6,0-1.2v-67.1c0-0.6,0-1.2,0-1.2s0.6-0.6,1.2-0.6h4.3v-8.6V260.9z M435.4,265.8v3.7c-2.5,0.6-3.7,1.2-4.3,1.8c-0.6,1.2-1.2,2.5-1.2,4.9v67.1c0,2.5,0.6,3.7,1.2,4.9c0.6,0.6,1.8,1.2,4.3,1.2v4.3 h-28.3v-4.3c2.5,0,3.7-0.6,4.9-1.8c0.6-0.6,1.2-1.8,1.2-4.3v-32h-16.6v32c0,2.5,0.6,3.7,1.2,4.9c0.6,0.6,2.5,1.2,4.3,1.2v4.3h-27.7 v-4.3c1.8,0,3.1-0.6,4.3-1.8c0.6-0.6,1.2-1.8,1.2-4.3v-67.1c0-2.5-0.6-3.7-1.2-4.9c-1.2-0.6-2.5-1.2-4.3-1.8v-3.7h27.7v3.7 c-1.8,0.6-3.7,1.2-4.3,1.8c-0.6,1.2-1.2,2.5-1.2,4.9v29.6h16.6v-29.6c0-2.5-0.6-3.7-1.2-4.9c-1.2-0.6-2.5-1.2-4.9-1.8v-3.7H435.4z"></path> <path class="st4" d="M476.1,321.9l-4.9-21.6l-5.5,21.6 M476.1,356.4v-8.6h2.5c2.5-0.6,3.1-0.6,3.1-0.6c0-0.6,0-0.6,0-1.2 s0-0.6,0-1.8c0-0.6,0-1.2-0.6-1.8l-2.5-10.5h-16l-1.8,9.2c0,0-0.6,0.6-0.6,1.2s0,1.2,0,1.8c0,1.2,0.6,1.8,1.2,2.5 c0,0,1.2,0.6,3.7,1.2h2.5v8.6h-25.3v-8.6h2.5c0.6,0,1.8-0.6,3.1-1.8c1.2-1.8,1.8-4.3,3.1-7.4l19.1-75.8h12.9l19.1,77 c1.2,3.7,2.5,5.5,3.1,6.2c0.6,1.2,1.2,1.2,3.1,1.8h2.5v8.6H476.1z"></path> <path class="st3" d="M468.7,319.4l1.8-9.2l2.5,9.2 M484.7,260.3h-16.6l-0.6,3.7l-19.1,73.9c-1.2,3.7-1.8,5.5-3.1,6.2 c-0.6,1.2-0.6,1.2-1.2,1.2h-4.3v13.6h30.2v-13.6H465c-1.2-0.6-1.8-0.6-2.5-0.6V344c0-0.6,0-1.2,0-1.8c0,0,0.6-0.6,0.6-1.2l1.8-6.2 h11.7l1.8,8c0.6,0.6,0.6,1.2,0.6,1.8s0,0.6-0.6,0.6h-4.9v13.6h39.4v-13.6h-4.9c-1.2,0-1.2-0.6-1.2-0.6c-0.6-0.6-1.2-1.8-2.5-5.5 L486,264L484.7,260.3z M461.9,324.3h17.2l-8-34.5L461.9,324.3z M481,265.2l19.1,75.2c0.6,3.7,1.8,6.2,3.1,7.4 c1.2,1.2,2.5,1.8,4.3,2.5v3.7h-29v-3.7c2.5-0.6,3.7-0.6,4.3-1.2c1.2-0.6,1.2-1.8,1.2-3.1c0-0.6,0-1.2,0-1.8s0-1.8-0.6-2.5l-3.1-12.3 h-19.7l-2.5,11.1c0,0.6-0.6,1.2-0.6,1.8c0,0,0,1.2,0,1.8c0,1.8,0.6,3.1,1.8,4.3c1.2,1.2,3.1,1.2,5.5,1.8v3.7h-20.3v-3.7 c1.8-0.6,3.1-1.2,4.9-3.1c1.2-1.8,2.5-4.3,3.7-8l19.1-73.9H481z"></path> <path class="st5" d="M446.5,183.3c12.9,30.2,48,44.4,78.2,31.4c30.2-12.9,43.7-48,30.8-78.2c-12.9-30.2-47.4-44.4-77.6-31.4 C447.8,118,433.6,153.1,446.5,183.3"></path> <g> <defs> <path id="SVGID_1_" d="M555.6,145.7c5.5,24-4.9,46.8-22.8,50.5c-17.9,3.7-36.3-12.3-41.3-36.3c-5.5-24,4.9-46.8,22.2-50.5 C531.5,105.6,550.6,121.7,555.6,145.7"></path> </defs> <clipPath id="SVGID_2_"> <use xlink:href="#SVGID_1_" style="overflow:visible;"></use> </clipPath> <path class="st6" d="M556.8,152.5c0,19.1-14.8,33.9-33.3,33.9c-18.5,0-33.9-14.8-33.9-33.9c0-18.5,15.4-33.3,33.9-33.3 C542,119.2,556.8,134,556.8,152.5 M579,152.5c0-30.2-25.3-55.4-55.4-55.4c-30.8,0-55.4,25.3-55.4,55.4c0,30.8,24.6,55.4,55.4,55.4 C553.7,207.9,579,183.3,579,152.5z"></path> <path class="st6" d="M566,152.5c0,24-19.1,43.1-42.5,43.1S481,176.5,481,152.5c0-23.4,19.1-42.5,42.5-42.5S566,129.1,566,152.5 M567.9,152.5c0-24-19.7-44.4-44.4-44.4s-44.4,20.3-44.4,44.4c0,24.6,19.7,45,44.4,45S567.9,177.1,567.9,152.5z"></path> <path class="st6" d="M565.4,152.5c0,23.4-19.1,41.9-41.9,41.9c-23.4,0-41.9-18.5-41.9-41.9c0-22.8,18.5-41.3,41.9-41.3 C546.3,111.2,565.4,129.7,565.4,152.5 M567.3,152.5c0-24-19.7-43.1-43.7-43.1s-43.7,19.1-43.7,43.1c0,24.6,19.7,43.7,43.7,43.7 S567.3,177.1,567.3,152.5z"></path> <path class="st6" d="M564.2,152.5c0,22.8-18.5,41.3-40.7,41.3c-22.8,0-41.3-18.5-41.3-41.3c0-22.2,18.5-40.7,41.3-40.7 C545.7,111.8,564.2,130.3,564.2,152.5 M566,152.5c0-23.4-19.1-42.5-42.5-42.5S481,129.1,481,152.5c0,24,19.1,43.1,42.5,43.1 S566,176.5,566,152.5z"></path> <path class="st6" d="M563.6,152.5c0,22.2-17.9,40-40,40s-40-17.9-40-40c0-21.6,17.9-39.4,40-39.4S563.6,130.9,563.6,152.5 M565.4,152.5c0-22.8-19.1-41.3-41.9-41.3c-23.4,0-41.9,18.5-41.9,41.3c0,23.4,18.5,41.9,41.9,41.9 C546.3,194.3,565.4,175.9,565.4,152.5z"></path> <path class="st6" d="M562.3,152.5c0,22.2-17.2,39.4-38.8,39.4s-39.4-17.2-39.4-39.4c0-21.6,17.9-38.8,39.4-38.8 S562.3,130.9,562.3,152.5 M564.2,152.5c0-22.2-18.5-40.7-40.7-40.7c-22.8,0-41.3,18.5-41.3,40.7c0,22.8,18.5,41.3,41.3,41.3 C545.7,193.7,564.2,175.3,564.2,152.5z"></path> <path class="st6" d="M561.7,152.5c0,21.6-17.2,38.2-38.2,38.2c-20.9,0-38.2-16.6-38.2-38.2c0-20.9,17.2-38.2,38.2-38.2 C544.5,114.3,561.7,131.5,561.7,152.5 M563.6,152.5c0-21.6-17.9-39.4-40-39.4s-40,17.9-40,39.4c0,22.2,17.9,40,40,40 S563.6,174.6,563.6,152.5z"></path> <path class="st6" d="M560.5,152.5c0,20.9-16.6,37.6-37,37.6c-20.9,0-37.6-16.6-37.6-37.6c0-20.3,16.6-37,37.6-37 C543.9,115.5,560.5,132.1,560.5,152.5 M562.3,152.5c0-21.6-17.2-38.8-38.8-38.8c-21.6,0-39.4,17.2-39.4,38.8 c0,22.2,17.9,39.4,39.4,39.4C545.1,191.9,562.3,174.6,562.3,152.5z"></path> <path class="st6" d="M559.9,152.5c0,20.3-16.6,36.3-36.3,36.3c-20.3,0-36.3-16-36.3-36.3c0-19.7,16-36.3,36.3-36.3 C543.2,116.1,559.9,132.7,559.9,152.5 M561.7,152.5c0-20.9-17.2-38.2-38.2-38.2c-20.9,0-38.2,17.2-38.2,38.2 c0,21.6,17.2,38.2,38.2,38.2C544.5,190.7,561.7,174,561.7,152.5z"></path> <path class="st6" d="M558.6,152.5c0,19.7-15.4,35.7-35.1,35.7c-19.7,0-35.7-16-35.7-35.7c0-19.1,16-35.1,35.7-35.1 C543.2,117.3,558.6,133.4,558.6,152.5 M560.5,152.5c0-20.3-16.6-37-37-37c-20.9,0-37.6,16.6-37.6,37c0,20.9,16.6,37.6,37.6,37.6 C543.9,190,560.5,173.4,560.5,152.5z"></path> <path class="st6" d="M558,152.5c0,19.1-15.4,35.1-34.5,35.1c-19.1,0-34.5-16-34.5-35.1c0-19.1,15.4-34.5,34.5-34.5 C542.6,118,558,133.4,558,152.5 M559.9,152.5c0-19.7-16.6-36.3-36.3-36.3c-20.3,0-36.3,16.6-36.3,36.3c0,20.3,16,36.3,36.3,36.3 C543.2,188.8,559.9,172.8,559.9,152.5z"></path> <path class="st6" d="M556.8,152.5c0,19.1-14.8,33.9-33.3,33.9c-18.5,0-33.9-14.8-33.9-33.9c0-18.5,15.4-33.3,33.9-33.3 C542,119.2,556.8,134,556.8,152.5 M558.6,152.5c0-19.1-15.4-35.1-35.1-35.1c-19.7,0-35.7,16-35.7,35.1c0,19.7,16,35.7,35.7,35.7 C543.2,188.2,558.6,172.2,558.6,152.5z"></path> <path class="st6" d="M556.2,152.5c0,18.5-14.8,33.3-32.6,33.3c-18.5,0-32.6-14.8-32.6-33.3c0-17.9,14.2-32.6,32.6-32.6 C541.4,119.8,556.2,134.6,556.2,152.5 M558,152.5c0-19.1-15.4-34.5-34.5-34.5c-19.1,0-34.5,15.4-34.5,34.5 c0,19.1,15.4,34.5,34.5,34.5C542.6,187,558,171.6,558,152.5z"></path> <path class="st6" d="M554.9,152.5c0,17.9-14.2,32-31.4,32c-17.9,0-32-14.2-32-32c0-17.2,14.2-31.4,32-31.4 C540.8,121,554.9,135.2,554.9,152.5 M556.8,152.5c0-18.5-14.8-33.3-33.3-33.3c-18.5,0-33.9,14.8-33.9,33.3 c0,19.1,15.4,33.9,33.9,33.9C542,186.3,556.8,171.6,556.8,152.5z"></path> <path class="st6" d="M554.3,152.5c0,17.2-13.6,31.4-30.8,31.4c-17.2,0-30.8-14.2-30.8-31.4c0-16.6,13.6-30.8,30.8-30.8 C540.8,121.7,554.3,135.8,554.3,152.5 M556.2,152.5c0-17.9-14.8-32.6-32.6-32.6c-18.5,0-32.6,14.8-32.6,32.6 c0,18.5,14.2,33.3,32.6,33.3C541.4,185.7,556.2,170.9,556.2,152.5z"></path> <path class="st7" d="M553.1,152.5c0,16.6-12.9,30.2-29.6,30.2c-16.6,0-30.2-13.6-30.2-30.2c0-16,13.6-29.6,30.2-29.6 C540.2,122.9,553.1,136.4,553.1,152.5 M554.9,152.5c0-17.2-14.2-31.4-31.4-31.4c-17.9,0-32,14.2-32,31.4c0,17.9,14.2,32,32,32 C540.8,184.5,554.9,170.3,554.9,152.5z"></path> <path class="st8" d="M552.5,152.5c0,16-12.9,29.6-29,29.6c-16,0-29-13.6-29-29.6c0-16,12.9-29,29-29 C539.5,123.5,552.5,136.4,552.5,152.5 M554.3,152.5c0-16.6-13.6-30.8-30.8-30.8c-17.2,0-30.8,14.2-30.8,30.8 c0,17.2,13.6,31.4,30.8,31.4C540.8,183.9,554.3,169.7,554.3,152.5z"></path> <path class="st9" d="M551.2,152.5c0,16-12.3,28.3-27.7,28.3s-28.3-12.3-28.3-28.3c0-15.4,12.9-27.7,28.3-27.7 S551.2,137.1,551.2,152.5 M553.1,152.5c0-16-12.9-29.6-29.6-29.6s-30.2,13.6-30.2,29.6c0,16.6,13.6,30.2,30.2,30.2 S553.1,169.1,553.1,152.5z"></path> <path class="st10" d="M550.6,152.5c0,15.4-12.3,27.7-27.1,27.7c-15.4,0-27.1-12.3-27.1-27.7c0-14.8,11.7-27.1,27.1-27.1 C538.3,125.4,550.6,137.7,550.6,152.5 M552.5,152.5c0-16-12.9-29-29-29s-29,12.9-29,29c0,16,12.9,29.6,29,29.6 S552.5,168.5,552.5,152.5z"></path> <path class="st11" d="M550,152.5c0,14.8-12.3,26.5-26.5,26.5c-14.8,0-26.5-11.7-26.5-26.5c0-14.2,11.7-25.9,26.5-25.9 C537.7,126.6,550,138.3,550,152.5 M551.3,152.5c0-15.4-12.3-27.7-27.7-27.7s-28.3,12.3-28.3,27.7c0,16,12.9,28.3,28.3,28.3 S551.3,168.5,551.3,152.5z"></path> <path class="st12" d="M548.8,152.5c0,14.2-11.1,25.9-25.3,25.9s-25.3-11.7-25.3-25.9c0-13.6,11.1-25.3,25.3-25.3 S548.8,138.9,548.8,152.5 M550.6,152.5c0-14.8-12.3-27.1-27.1-27.1c-15.4,0-27.1,12.3-27.1,27.1c0,15.4,11.7,27.7,27.1,27.7 C538.3,180.2,550.6,167.9,550.6,152.5z"></path> <path class="st13" d="M548.2,152.5c0,13.6-11.1,24.6-24.6,24.6c-13.6,0-24.6-11.1-24.6-24.6c0-13.6,11.1-24,24.6-24 C537.1,128.4,548.2,138.9,548.2,152.5 M550,152.5c0-14.2-12.3-25.9-26.5-25.9c-14.8,0-26.5,11.7-26.5,25.9 c0,14.8,11.7,26.5,26.5,26.5C537.7,178.9,550,167.2,550,152.5z"></path> <path class="st14" d="M546.9,152.5c0,13.6-10.5,24-23.4,24c-12.9,0-23.4-10.5-23.4-24c0-12.9,10.5-23.4,23.4-23.4 C536.5,129.1,546.9,139.5,546.9,152.5 M548.8,152.5c0-13.6-11.1-25.3-25.3-25.3s-25.3,11.7-25.3,25.3c0,14.2,11.1,25.9,25.3,25.9 S548.8,166.6,548.8,152.5z"></path> <path class="st15" d="M546.3,152.5c0,12.9-10.5,22.8-22.8,22.8c-12.9,0-22.8-9.9-22.8-22.8c0-12.3,9.9-22.2,22.8-22.2 C535.8,130.3,546.3,140.1,546.3,152.5 M548.2,152.5c0-13.6-11.1-24-24.6-24c-13.6,0-24.6,10.5-24.6,24c0,13.6,11.1,24.6,24.6,24.6 C537.1,177.1,548.2,166,548.2,152.5z"></path> <path class="st16" d="M545.1,152.5c0,12.3-9.9,22.2-21.6,22.2c-12.3,0-22.2-9.9-22.2-22.2c0-11.7,9.9-21.6,22.2-21.6 C535.2,130.9,545.1,140.8,545.1,152.5 M546.9,152.5c0-12.9-10.5-23.4-23.4-23.4c-12.9,0-23.4,10.5-23.4,23.4 c0,13.6,10.5,24,23.4,24C536.5,176.5,546.9,166,546.9,152.5z"></path> <path class="st17" d="M544.5,152.5c0,11.7-9.9,20.9-20.9,20.9c-11.7,0-20.9-9.2-20.9-20.9c0-11.1,9.2-20.3,20.9-20.3 C534.6,132.1,544.5,141.4,544.5,152.5 M546.3,152.5c0-12.3-10.5-22.2-22.8-22.2c-12.9,0-22.8,9.9-22.8,22.2 c0,12.9,9.9,22.8,22.8,22.8C535.8,175.3,546.3,165.4,546.3,152.5z"></path> <path class="st18" d="M543.2,152.5c0,11.1-8.6,20.3-19.7,20.3c-11.1,0-20.3-9.2-20.3-20.3c0-10.5,9.2-19.7,20.3-19.7 C534.6,132.7,543.2,142,543.2,152.5 M545.1,152.5c0-11.7-9.9-21.6-21.6-21.6c-12.3,0-22.2,9.9-22.2,21.6c0,12.3,9.9,22.2,22.2,22.2 C535.2,174.6,545.1,164.8,545.1,152.5z"></path> <path class="st19" d="M542.6,152.5c0,11.1-8.6,19.1-19.1,19.1c-10.5,0-19.1-8-19.1-19.1c0-10.5,8.6-19.1,19.1-19.1 C534,133.4,542.6,142,542.6,152.5 M544.5,152.5c0-11.1-9.9-20.3-20.9-20.3c-11.7,0-20.9,9.2-20.9,20.3c0,11.7,9.2,20.9,20.9,20.9 C534.6,173.4,544.5,164.2,544.5,152.5z"></path> <path class="st20" d="M541.4,152.5c0,10.5-8,18.5-17.9,18.5s-18.5-8-18.5-18.5c0-9.9,8.6-17.9,18.5-17.9S541.4,142.6,541.4,152.5 M543.2,152.5c0-10.5-8.6-19.7-19.7-19.7c-11.1,0-20.3,9.2-20.3,19.7c0,11.1,9.2,20.3,20.3,20.3 C534.6,172.8,543.2,163.5,543.2,152.5z"></path> <path class="st21" d="M540.8,152.5c0,9.9-8,17.2-17.2,17.2c-9.9,0-17.2-7.4-17.2-17.2c0-9.2,7.4-17.2,17.2-17.2 C532.8,135.2,540.8,143.2,540.8,152.5 M542.6,152.5c0-10.5-8.6-19.1-19.1-19.1s-19.1,8.6-19.1,19.1c0,11.1,8.6,19.1,19.1,19.1 S542.6,163.5,542.6,152.5z"></path> <path class="st22" d="M539.5,152.5c0,9.2-7.4,16.6-16,16.6c-9.2,0-16.6-7.4-16.6-16.6c0-8.6,7.4-16,16.6-16 C532.2,136.4,539.5,143.8,539.5,152.5 M541.4,152.5c0-9.9-8-17.9-17.9-17.9s-18.5,8-18.5,17.9c0,10.5,8.6,18.5,18.5,18.5 S541.4,162.9,541.4,152.5z"></path> <path class="st23" d="M538.9,152.5c0,8.6-6.8,16-15.4,16s-15.4-7.4-15.4-16c0-8,6.8-15.4,15.4-15.4S538.9,144.5,538.9,152.5 M540.8,152.5c0-9.2-8-17.2-17.2-17.2c-9.9,0-17.2,8-17.2,17.2c0,9.9,7.4,17.2,17.2,17.2C532.8,169.7,540.8,162.3,540.8,152.5z"></path> <path class="st24" d="M537.7,152.5c0,8-6.2,14.8-14.2,14.8s-14.8-6.8-14.8-14.8c0-8,6.8-14.2,14.8-14.2S537.7,144.5,537.7,152.5 M539.5,152.5c0-8.6-7.4-16-16-16c-9.2,0-16.6,7.4-16.6,16c0,9.2,7.4,16.6,16.6,16.6C532.2,169.1,539.5,161.7,539.5,152.5z"></path> <path class="st25" d="M537.1,152.5c0,8-6.2,14.2-13.6,14.2c-7.4,0-13.6-6.2-13.6-14.2c0-7.4,6.2-13.6,13.6-13.6 C530.9,138.9,537.1,145.1,537.1,152.5 M538.9,152.5c0-8-6.8-15.4-15.4-15.4c-8.6,0-15.4,7.4-15.4,15.4c0,8.6,6.8,16,15.4,16 C532.2,168.5,538.9,161.1,538.9,152.5z"></path> <path class="st26" d="M536.5,152.5c0,7.4-6.2,12.9-12.9,12.9c-7.4,0-12.9-5.5-12.9-12.9c0-6.8,5.5-12.3,12.9-12.3 C530.3,140.1,536.5,145.7,536.5,152.5 M537.7,152.5c0-8-6.2-14.2-14.2-14.2s-14.8,6.2-14.8,14.2c0,8,6.8,14.8,14.8,14.8 S537.7,160.5,537.7,152.5z"></path> <path class="st27" d="M535.2,152.5c0,6.8-5.5,12.3-11.7,12.3c-6.8,0-11.7-5.5-11.7-12.3c0-6.2,4.9-11.7,11.7-11.7 C529.7,140.8,535.2,146.3,535.2,152.5 M537.1,152.5c0-7.4-6.2-13.6-13.6-13.6s-13.6,6.2-13.6,13.6c0,8,6.2,14.2,13.6,14.2 S537.1,160.5,537.1,152.5z"></path> <path class="st28" d="M534.6,152.5c0,6.2-4.9,11.1-11.1,11.1s-11.1-4.9-11.1-11.1c0-5.5,4.9-10.5,11.1-10.5 S534.6,146.9,534.6,152.5 M536.5,152.5c0-6.8-6.2-12.3-12.9-12.3c-7.4,0-12.9,5.5-12.9,12.3c0,7.4,5.5,12.9,12.9,12.9 C530.3,165.4,536.5,159.9,536.5,152.5z"></path> <path class="st29" d="M533.4,152.5c0,5.5-4.3,10.5-9.9,10.5s-9.9-4.9-9.9-10.5c0-5.5,4.3-9.9,9.9-9.9S533.4,146.9,533.4,152.5 M535.2,152.5c0-6.2-5.5-11.7-11.7-11.7c-6.8,0-11.7,5.5-11.7,11.7c0,6.8,4.9,12.3,11.7,12.3C529.7,164.8,535.2,159.2,535.2,152.5z "></path> <path class="st30" d="M532.8,152.5c0,5.5-4.3,9.2-9.2,9.2s-9.2-3.7-9.2-9.2c0-4.9,4.3-8.6,9.2-8.6S532.8,147.5,532.8,152.5 M534.6,152.5c0-5.5-4.9-10.5-11.1-10.5s-11.1,4.9-11.1,10.5c0,6.2,4.9,11.1,11.1,11.1S534.6,158.6,534.6,152.5z"></path> <path class="st31" d="M531.5,152.5c0,4.9-3.7,8.6-8,8.6c-4.9,0-8-3.7-8-8.6c0-4.3,3.1-8,8-8C527.8,144.5,531.5,148.1,531.5,152.5 M533.4,152.5c0-5.5-4.3-9.9-9.9-9.9c-5.5,0-9.9,4.3-9.9,9.9c0,5.5,4.3,10.5,9.9,10.5C529.1,162.9,533.4,158,533.4,152.5z"></path> <path class="st32" d="M530.9,152.5c0,4.3-3.7,7.4-7.4,7.4c-4.3,0-7.4-3.1-7.4-7.4c0-3.7,3.1-6.8,7.4-6.8 C527.2,145.7,530.9,148.8,530.9,152.5 M532.8,152.5c0-4.9-4.3-8.6-9.2-8.6c-4.9,0-9.2,3.7-9.2,8.6c0,5.5,4.3,9.2,9.2,9.2 C528.5,161.7,532.8,158,532.8,152.5z"></path> <path class="st33" d="M529.7,152.5c0,3.7-2.5,6.8-6.2,6.8c-3.7,0-6.8-3.1-6.8-6.8c0-3.1,3.1-6.2,6.8-6.2 C527.2,146.3,529.7,149.4,529.7,152.5 M531.5,152.5c0-4.3-3.7-8-8-8c-4.9,0-8,3.7-8,8c0,4.9,3.1,8.6,8,8.6 C527.8,161.1,531.5,157.4,531.5,152.5z"></path> <path class="st34" d="M529.1,152.5c0,3.1-2.5,5.5-5.5,5.5c-3.1,0-5.5-2.5-5.5-5.5c0-2.5,2.5-4.9,5.5-4.9 C526.6,147.5,529.1,150,529.1,152.5 M530.9,152.5c0-3.7-3.7-6.8-7.4-6.8c-4.3,0-7.4,3.1-7.4,6.8c0,4.3,3.1,7.4,7.4,7.4 C527.2,159.9,530.9,156.8,530.9,152.5z"></path> <path class="st35" d="M527.8,152.5c0,2.5-1.8,4.9-4.3,4.9c-2.5,0-4.9-2.5-4.9-4.9c0-2.5,2.5-4.3,4.9-4.3 C526,148.1,527.8,150,527.8,152.5 M529.7,152.5c0-3.1-2.5-6.2-6.2-6.2c-3.7,0-6.8,3.1-6.8,6.2c0,3.7,3.1,6.8,6.8,6.8 C527.2,159.2,529.7,156.2,529.7,152.5z"></path> <path class="st36" d="M527.2,152.5c0,2.5-1.8,3.7-3.7,3.7c-2.5,0-3.7-1.2-3.7-3.7c0-1.8,1.2-3.1,3.7-3.1 C525.4,149.4,527.2,150.6,527.2,152.5 M529.1,152.5c0-2.5-2.5-4.9-5.5-4.9c-3.1,0-5.5,2.5-5.5,4.9c0,3.1,2.5,5.5,5.5,5.5 C526.6,158,529.1,155.5,529.1,152.5z"></path> <path class="st37" d="M526,152.5c0,1.8-1.2,3.1-2.5,3.1c-1.8,0-3.1-1.2-3.1-3.1c0-1.2,1.2-2.5,3.1-2.5 C524.8,150,526,151.2,526,152.5 M527.8,152.5c0-2.5-1.8-4.3-4.3-4.3s-4.9,1.8-4.9,4.3c0,2.5,2.5,4.9,4.9,4.9 S527.8,154.9,527.8,152.5z"></path> </g> <path class="st38" d="M525.4,152.5c0,1.2-1.2,1.8-1.8,1.8c-1.2,0-1.8-0.6-1.8-1.8c0-0.6,0.6-1.8,1.8-1.8 C524.1,150.6,525.4,151.8,525.4,152.5 M527.2,152.5c0-1.8-1.8-3.1-3.7-3.1c-2.5,0-3.7,1.2-3.7,3.1c0,2.5,1.2,3.7,3.7,3.7 C525.4,156.2,527.2,154.9,527.2,152.5z"></path> <g> <defs> <path id="SVGID_3_" d="M555.6,145.7c5.5,24-4.9,46.8-22.8,50.5c-17.9,3.7-36.3-12.3-41.3-36.3c-5.5-24,4.9-46.8,22.2-50.5 C531.5,105.6,550.6,121.7,555.6,145.7"></path> </defs> <clipPath id="SVGID_4_"> <use xlink:href="#SVGID_3_" style="overflow:visible;"></use> </clipPath> <path class="st39" d="M524.1,152.5c0,0.6,0,1.2-0.6,1.2s-1.2-0.6-1.2-1.2c0,0,0.6-0.6,1.2-0.6S524.1,152.5,524.1,152.5 M526,152.5 c0-1.2-1.2-2.5-2.5-2.5c-1.8,0-3.1,1.2-3.1,2.5c0,1.8,1.2,3.1,3.1,3.1C524.8,155.5,526,154.3,526,152.5z"></path> </g> <path class="st40" d="M525.4,152.5c0-0.6-1.2-1.8-1.8-1.8c-1.2,0-1.8,1.2-1.8,1.8c0,1.2,0.6,1.8,1.8,1.8 C524.1,154.3,525.4,153.7,525.4,152.5"></path> <path class="st41" d="M524.1,152.5c0,0,0-0.6-0.6-0.6c-0.6,0-1.2,0.6-1.2,0.6c0,0.6,0.6,1.2,1.2,1.2 C524.1,153.7,524.1,153.1,524.1,152.5"></path> <path class="st42" d="M547.6,145.7c0,0,0,0,0,0.6c5.5-2.5,8-3.7,9.2-4.3c-0.6-0.6-0.6-0.6-0.6-1.2 C554.9,142,552.5,143.2,547.6,145.7"></path> <path class="st42" d="M468.1,172.2c11.7-3.1,25.9-6.8,39.4-11.1c-4.9-14.8-9.9-28.3-13.6-38.8c-0.6,0-0.6,0-0.6,0 c3.7,10.5,8.6,23.4,12.9,38.2c-12.9,4.3-27.1,8-38.2,11.1V172.2"></path> <path class="st42" d="M508.1,164.2c0,0,0,0-0.6,0c4.3,14.2,8,27.1,10.5,36.3c-9.9,3.1-19.7,6.2-28.3,8c0.6,0,0.6,0.6,0.6,0.6 c8.6-1.8,19.1-4.9,28.3-8C516.8,191.9,513.1,178.9,508.1,164.2"></path> <path class="st42" d="M465.6,172.8c-4.3-14.8-4.9-29.6-1.8-41.9c0,0-0.6,0-1.2,0c-2.5,12.3-2.5,27.1,1.8,41.3 c-11.1,3.1-17.9,3.7-19.7,3.7c0,0,0,0,0.6,0.6C447.8,176.5,455.2,175.3,465.6,172.8"></path> <path class="st42" d="M546.9,150c-0.6,0.6-0.6,0.6-1.2,0.6c4.3,14.2,3.7,28.3-0.6,40c-6.2,2.5-14.8,5.5-24.6,8.6 c0,0.6,0.6,0.6,0.6,1.2c9.2-3.7,18.5-6.8,25.3-9.2c0-0.6,0-1.2,0.6-1.2v-0.6C550.6,178.3,550.6,164.2,546.9,150"></path> <path class="st42" d="M521.1,112.4c10.5,8,19.1,19.7,23.4,33.9c-8.6,3.7-21.6,8.6-34.5,12.9v0.6c13.6-4.3,26.5-8.6,35.7-12.9 c-4.9-14.2-13.6-26.5-24-34.5C521.1,112.4,521.1,112.4,521.1,112.4"></path> <path class="st42" d="M473.6,211.6c0.6,0,0.6,0,1.2,0.6c1.2,0,6.2-0.6,14.2-2.5c-9.2-7.4-17.2-19.1-22.2-33.9c-0.6,0-0.6,0-1.2,0 c4.9,14.8,12.9,25.9,22.2,33.3C479.8,211,475.5,211.6,473.6,211.6"></path> <path class="st42" d="M518,110c-6.2,2.5-14.2,5.5-23.4,8.6c0,0,0,0.6,0.6,0.6c9.2-3.1,17.9-6.2,24-8.6c-8-5.5-16-8.6-24.6-8.6 c0,0-0.6,0-1.2,0h-0.6C501.4,101.9,509.4,105,518,110"></path> <line class="st42" x1="480.4" y1="105" x2="480.4" y2="105"></line> <path class="st42" d="M547.6,190.7c1.8-0.6,3.1-1.2,4.3-1.8c0-0.6,0.6-1.2,0.6-1.8c-1.2,0.6-2.5,1.2-4.3,2.5 C548.2,189.4,547.6,190,547.6,190.7"></path> <path class="st42" d="M466.2,127.2v0.6c8-1.8,17.9-4.9,26.5-8c-3.1-8-5.5-14.2-7.4-16.6c0,0.6-0.6,0.6-0.6,0.6 c1.8,2.5,4.3,8,7.4,15.4C483.5,122.3,474.3,124.7,466.2,127.2"></path> <path class="st42" d="M464.4,128.4c2.5-8.6,6.8-15.4,11.7-20.3c1.2-0.6,2.5-1.8,3.7-2.5c-7.4,4.3-12.9,11.7-16,22.2 c-6.8,1.2-11.1,2.5-12.9,2.5c0,0,0,0-0.6,0C452.1,130.9,457,130.3,464.4,128.4"></path> <path class="st42" d="M520.5,110c3.1-1.2,4.9-1.8,6.2-2.5c-0.6-0.6-0.6-0.6-1.2-0.6c-1.2,0.6-3.1,1.2-5.5,2.5 C519.8,110,519.8,110,520.5,110"></path> <path class="st42" d="M507.5,217.8c0,0,0,0-0.6,0c-0.6,0-1.8,0-3.1-0.6c-4.3-1.2-8.6-3.1-12.9-6.2c-0.6,0-0.6,0-0.6,0 c5.5,3.7,11.1,6.8,15.4,6.8C506.3,217.8,506.9,217.8,507.5,217.8"></path> <path class="st42" d="M521.1,214.7c0-1.8-0.6-6.2-1.8-11.7h-0.6c1.2,6.2,1.8,10.5,1.2,12.3C520.4,214.7,521.1,214.7,521.1,214.7"></path> <path class="st42" d="M545.1,193.7c0,0-0.6,0-1.2,0.6c-1.8,4.3-3.7,8-6.2,11.1c0-0.6,0.6-0.6,0.6-0.6 C541.4,201.1,543.9,197.4,545.1,193.7"></path> <path class="st3" d="M540.8,203c2.5-3.1,4.3-6.2,6.2-9.9c1.2-0.6,2.5-1.2,3.1-1.8C547.6,195.6,544.5,199.3,540.8,203 M524.1,213.4 c-0.6,0-1.2,0.6-2.5,0.6c0.6-1.8,0.6-6.2-0.6-11.7c9.2-3.1,17.9-6.2,24-8.6c-1.2,3.7-3.7,7.4-6.8,11.1 C534,207.9,529.1,211,524.1,213.4z M477.9,213.4c1.2,0,6.2-0.6,12.9-2.5c5.5,3.7,11.1,6.2,16.6,6.8c-1.8,0.6-4.3,0.6-6.8,0.6 C492.7,218.4,484.7,216.5,477.9,213.4z M447.1,182.6c0-1.2-0.6-1.8-1.2-3.1c2.5,0,10.5-1.2,20.9-3.7c4.9,14.8,12.9,26.5,22.2,33.9 c-8,1.8-12.9,2.5-14.2,2.5C462.5,206.1,452.7,195.6,447.1,182.6z M446.5,138.3c1.2-1.8,1.8-3.7,2.5-4.9c1.2,0,6.8-0.6,14.8-2.5 c-3.1,12.3-2.5,27.1,1.8,41.9c-10.5,2.5-17.9,3.7-20.3,3.7C441,163.5,441.6,150.6,446.5,138.3z M477.9,106.3 c0.6-0.6,1.2-0.6,1.8-0.6c-7.4,4.3-12.3,12.9-15.4,22.8c-7.4,1.8-12.3,2.5-14.2,1.8C457,119.8,466.2,111.2,477.9,106.3z M526.6,107.5c-1.2,0.6-3.1,1.2-6.2,2.5c-8-4.9-16.6-8-25.3-8c1.8-0.6,3.7-0.6,5.5-0.6C510,101.3,518.6,103.2,526.6,107.5z M554.9,137.1c0.6,1.2,1.2,3.1,1.8,4.9c-1.2,0.6-3.7,1.8-9.2,4.3c-4.9-14.8-14.2-26.5-24.6-34.5c3.1-1.2,4.9-2.5,6.2-3.1 C540.2,114.9,549.4,124.7,554.9,137.1z M521.1,200.5c-1.8-9.9-5.5-22.8-9.9-37.6c13.6-4.3,26.5-8.6,35.7-12.9 c4.3,14.8,3.7,29.6-0.6,41.3C539.5,193.7,530.3,196.8,521.1,200.5z M508.1,164.2c4.9,14.8,8.6,27.7,10.5,37 c-9.2,3.1-19.7,6.2-28.3,8c-8.6-7.4-16-19.1-20.9-33.9C481,172.8,494.6,168.5,508.1,164.2z M494,122.3c3.7,10.5,8.6,24,13.6,38.8 c-13.6,4.3-27.7,8-39.4,11.1c-4.3-14.8-4.9-29.6-2.5-41.9C474.3,128.4,484.1,125.4,494,122.3z M485.3,103.2 c1.8,2.5,4.3,8.6,7.4,16.6c-8.6,3.1-18.5,6.2-26.5,8c2.5-9.9,7.4-17.9,14.2-22.8C481.6,104.4,483.5,103.8,485.3,103.2z M521.7,112.4 c10.5,8,19.1,20.3,24,34.5c-9.2,4.3-22.2,8.6-35.7,12.9c-4.3-14.8-9.9-28.3-14.2-38.2C505.7,118.6,514.9,114.9,521.7,112.4z M494,101.9c8.6,0,17.2,3.1,25.3,8.6c-6.2,2.5-14.8,5.5-24,8.6c-3.7-8-7.4-14.2-9.9-16C488.4,102.6,490.9,101.9,494,101.9z M521.1,214.7c-3.7,1.2-8,2.5-12.3,3.1c-5.5-0.6-11.1-3.1-16-7.4c7.4-1.8,17.2-4.3,26.5-7.4C520.4,208.5,521.1,212.8,521.1,214.7z M554.9,181.4c-0.6,2.5-1.8,4.9-3.1,7.4c-1.2,0.6-2.5,1.2-4.3,1.8c4.9-11.7,5.5-26.5,1.2-41.3c4.9-2.5,8-3.7,8.6-4.3 C560.5,156.8,559.9,169.7,554.9,181.4z M556.8,135.8c-9.9-22.2-31.4-37-56.1-37c-8,0-16,1.8-23.4,4.9c-14.8,6.8-26.5,18.5-32.6,33.3 c-6.2,15.4-5.5,31.4,0.6,46.2c9.9,22.8,31.4,37,55.4,37c8.6,0,16.6-1.2,24-4.9c12.9-4.9,22.8-14.8,29.6-26.5l1.2-2.5 c0.6-1.2,1.2-2.5,1.8-4.3C563.6,167.2,563,150.6,556.8,135.8z"></path> </svg> 