<?xml version="1.0" encoding="utf-8"?> <svg xmlns="http://www.w3.org/2000/svg" xmlns:xlink="http://www.w3.org/1999/xlink" version="1.1" x="0px" y="0px" viewBox="0 0 134 76.9" style="enable-background:new 0 0 134 76.9;" xml:space="preserve"> <style type="text/css"> .st1{display:inline;fill:#CCCCCB;} .st2{display:inline;fill: #ffffff;} .st3{fill:#FFFFFF;} .st4{fill:#06060B;} .st5{fill:#FDB823;} </style> <g id="noir_fleche_blanc" class="st0"> <g class="st2"> <g> <polygon class="st4" points="107.4,62.9 102.2,62.9 103.1,61.1 119.7,61.1 118.9,62.9 113.8,62.9 108.7,73.7 102.3,73.7 "></polygon> <polygon class="st4" points="64,73.7 69.9,61.1 82.1,61.1 81.3,63 75.7,63 74.1,66.2 79.7,66.2 78.8,68.2 73.2,68.2 71.5,71.8 77.1,71.8 76.2,73.7 "></polygon> <path class="st4" d="M38.9,63c0.5,0,0.7,0.3,0.6,0.7l-3.5,7.4c-0.2,0.4-0.7,0.7-1.2,0.7h-1.2c-0.5,0-0.7-0.3-0.6-0.7 l3.5-7.4c0.2-0.4,0.7-0.7,1.2-0.7H38.9z M37.1,73.7c2.6,0,4.4-0.6,5-1.8l3.9-8.2c0.6-1.3-0.8-2.5-2.8-2.5h-7.9 c-2.6,0-4.4,0.6-5,1.8l-3.9,8.2c-0.6,1.3,0.8,2.5,2.8,2.5H37.1z"></path> <path class="st4" d="M26.7,63.7c0.6-1.3-0.8-2.5-2.8-2.5H11.5l-6,12.5h6.2l2.3-4.9h0.6l3,4.9h6.7l-3-5.4h1.8 c0.9,0,1.7-0.6,2-1.2L26.7,63.7z M14.8,67.3l2.1-4.4h2.8c0.5,0,0.7,0.3,0.6,0.7l-1.4,3c-0.2,0.4-0.7,0.7-1.2,0.7H14.8z"></path> <path class="st4" d="M100.8,63.7c0.6-1.3-0.8-2.5-2.8-2.5H85.6l-6,12.5h6.2l2.3-4.9h0.6l3,4.9h6.7l-3-5.4h1.8 c0.9,0,1.7-0.6,2-1.2L100.8,63.7z M88.8,67.3l2.1-4.4h2.8c0.5,0,0.7,0.3,0.6,0.7l-1.4,3c-0.2,0.4-0.7,0.7-1.2,0.7H88.8z"></path> <path class="st4" d="M56.5,68.9l-0.9,1.9c-0.2,0.4-0.8,1-1.5,1h-2.5l1.7-3.6h2.1C56.6,68.2,56.7,68.6,56.5,68.9z M59,63.7 l-0.8,1.8c-0.2,0.5-0.8,0.8-1.4,0.8h-2.4l1.6-3.3l2.1,0C59.1,63,59.2,63.4,59,63.7z M56.7,73.7c2.6,0,4.4-0.6,5-1.8l1.2-2.5 c0.3-0.5,0.1-1.3-0.3-1.8c0.6-0.1,1.4-0.4,1.6-1l1.3-2.8c0.6-1.3-0.8-2.5-2.8-2.5H50.3l-6,12.5H56.7z"></path> </g> <g> <path class="st4" d="M38.7,3.2h76.4c9,0,12.9,5.8,13.3,11.3c0.5,7.2-2.5,13-8,16.7c-4.7,3.2-9.5,4.5-16.6,4.5l12.1,19.5H77.9 L66,35.7h-5.1l-9.3,19.5h-38L38.7,3.2z"></path> <polygon class="st3" points="110.9,19.3 89.6,6.1 82.3,10.4 91.2,16.6 32.2,16.6 29.3,22.6 87.4,22.6 74.9,28.5 82.1,33.3 "></polygon> </g> </g> </g> </svg> 