<?xml version="1.0" encoding="utf-8"?> <svg xmlns="http://www.w3.org/2000/svg" xmlns:xlink="http://www.w3.org/1999/xlink" version="1.1" id="Layer_1" x="0px" y="0px" viewBox="0 0 214 103" style="enable-background:new 0 0 214 103;" xml:space="preserve"> <g> <path d="M0,54.7817802h2.5923545c0.028758,3.1389427,2.2461588,5.0108566,6.0474997,5.0108566 c3.3119955,0,5.2415085-1.4398117,5.2415085-3.7150803c0-2.7934532-2.8225574-3.2540436-5.8755074-3.7438316 c-3.6573958-0.5757828-7.6891212-1.5260773-7.6891212-5.9323959c0-3.657486,2.793808-6.0479431,7.6891212-6.0479431 c4.9823704,0,8.0064735,2.5919991,8.0353165,6.8831291h-2.5347586c0-2.8798027-2.0158587-4.5790215-5.5005579-4.5790215 c-3.2825346,0-5.0681019,1.4109726-5.0681019,3.5998878c0,2.6783524,2.7068388,3.1676979,5.7021008,3.628643 c3.6862373,0.6046257,7.8619099,1.4109688,7.8619099,6.0188332c0,3.801342-2.9082928,6.1917992-7.8906631,6.1917992 C3.283242,62.0966568,0,59.3032036,0,54.7817802z"></path> </g> <g> <path d="M54.0046043,41.0734673h2.6210136v20.303196h-2.6210136V41.0734673z"></path> </g> <g> <path d="M95.6967316,41.0734673h4.1468277l6.7103424,16.6457138h0.2591324l6.7384872-16.6457138h4.1186905v20.303196h-2.621109 V44.3854637h-0.2590485l-6.8542938,16.9911995h-2.5052948l-6.8254471-16.9624443h-0.2591324v16.9624443h-2.6491547V41.0734673z"></path> </g> <g> <path d="M146.2532654,51.2106438c0-6.3357468,4.5499115-10.8572578,10.9716492-10.8572578 c6.4225311,0,10.9723663,4.5215111,10.9723663,10.8572578c0,6.3933449-4.5498352,10.886013-10.9723663,10.886013 C150.8031769,62.0966568,146.2532654,57.6039886,146.2532654,51.2106438z M165.5481262,51.2106438 c0-4.9820175-3.4559479-8.5531502-8.3232117-8.5531502c-4.8665619,0-8.3512573,3.5711327-8.3512573,8.5531502 c0,4.9821053,3.4846954,8.5819931,8.3512573,8.5819931C162.0921783,59.7926369,165.5481262,56.192749,165.5481262,51.2106438z"></path> </g> <g> <path d="M196.7797089,41.0734673h3.772583l9.6186371,16.8472557h0.25914V41.0734673h2.6210175v20.303196h-3.7438354 l-9.6192474-16.8472519h-0.2878876v16.8472519h-2.6204071V41.0734673z"></path> </g> <g> <path d="M0.3167342,81.6797714h8.8125544c3.7438335,0,6.4218302,2.2750015,6.4218302,5.4430466 c0,1.9294281-1.2386255,3.6573944-2.9665966,4.2044296v0.2882462c2.0740786,0.5756912,3.5422916,2.4764481,3.5422916,4.6653671 c0,3.2828903-2.9370461,5.7021027-6.9975252,5.7021027H0.3167342V81.6797714z M8.8119354,90.4057083 c2.4195662,0,4.1475363-1.3246231,4.1475363-3.1965408s-1.7279701-3.225647-4.1475363-3.225647H2.9371347v6.4221878H8.8119354z M8.7543392,99.6788559c2.793808,0,4.7809172-1.4973221,4.7809172-3.5419388c0-1.9873734-1.9871092-3.4271927-4.7809172-3.4271927 H2.9371347v6.9691315H8.7543392z"></path> </g> <g> <path d="M48.8965073,81.6797714h2.6203995v17.9990845h10.2238808v2.3041077H48.8965073V81.6797714z"></path> </g> <g> <path d="M155.914093,81.6797714h2.6204071v20.3031921h-2.6204071V81.6797714z"></path> </g> <g> <path d="M196.8660583,95.3880768h2.5916443c0.0287628,3.1389465,2.2461548,5.0108643,6.0475006,5.0108643 c3.3119965,0,5.2415161-1.4398193,5.2415161-3.7150803c0-2.793457-2.8219452-3.2540512-5.8748016-3.7438354 c-3.657486-0.5756989-7.6891174-1.5260773-7.6891174-5.9323959c0-3.657486,2.7930908-6.0478592,7.6891174-6.0478592 c4.9823608,0,8.0057678,2.5919189,8.0346069,6.8830414h-2.5340576c0-2.8797989-2.0158539-4.5790176-5.5005493-4.5790176 c-3.2832489,0-5.0687103,1.4109726-5.0687103,3.599884c0,2.6783524,2.7073517,3.1677856,5.7019958,3.6287308 c3.6862335,0.604538,7.8626251,1.4109726,7.8626251,6.0187531c0,3.8014297-2.9090118,6.1917953-7.8913727,6.1917953 C200.1485901,102.7029572,196.8660583,99.9095001,196.8660583,95.3880768z"></path> </g> <path d="M0.3167342,7.0391388c0-4.089056,2.9680119-7.0388427,7.0944924-7.0388427 c2.7634616,0,5.2646003,1.6060548,5.9926467,3.8090384l-1.5492554,0.5225232 c-0.5600357-1.6430366-2.4080648-2.8379564-4.4433913-2.8379564c-3.1553984,0-5.3952713,2.2966771-5.3952713,5.5452375 c0,3.2114906,2.25916,5.563817,5.3952713,5.563817c2.8383985,0,5.0782752-2.0348845,5.1532121-4.6864276L6.0299864,7.8977718 V6.385941h8.2518997c0.2804604,4.4809041-2.5953674,7.7107081-6.8706594,7.7107081 C3.2847462,14.0966492,0.3167342,11.1281071,0.3167342,7.0391388z"></path> <path d="M38.1473618,0.4671693h2.315876l4.9101753,13.1626062h-1.6241913l-1.1199837-2.9497862H35.925621l-1.1198921,2.9497862 h-1.6242828L38.1473618,0.4671693z M42.1431656,9.2795467l-2.7634583-7.3187723h-0.1681023l-2.7816849,7.3187723H42.1431656z"></path> <path d="M137.6959534,0.4671693h5.7314758c2.8566132,0,4.7420654,1.5685422,4.7420654,3.995275 c0,2.2404962-1.7548676,3.8090382-4.2003479,3.9209566h-0.2248077l4.7795868,5.2463751h-2.1467133l-4.5558319-5.15277h-2.4272766 v5.15277h-1.6981506V0.4671693z M143.4274292,6.9834008c1.8855438,0,3.0429382-0.9710822,3.0429382-2.5209565 c0-1.5305874-1.1573944-2.5016696-3.0429382-2.5016696h-4.0333252v5.0226259H143.4274292z"></path> <path d="M174.456665,0.4671693h1.6981659V13.629776h-1.6981659V0.4671693z"></path> <path d="M203.8281097,0.4671693h9.035675v1.4936054h-7.3182373v4.1077242h6.5718842v1.4936051h-6.5718842v4.5740671h7.5055389 v1.4936047h-9.2229767V0.4671693z"></path> <path d="M116.0870667,92.9328613l-7.6602783-11.2530899h-3.4847794l-7.6603699,11.2530899v9.0500107h18.8054276V92.9328613z M106.5836258,83.9834366h0.2015457l6.6814957,9.8145142v5.8809052H99.9020386v-5.8809052L106.5836258,83.9834366z"></path> <path d="M102.0729065,0.4671693h9.0355988v1.4936054h-7.3182373v4.1077242h6.5719604v1.4936051h-6.5719604v4.5740671h7.5056229 v1.4936047h-9.2229843V0.4671693z"></path> <path d="M68.3288574,0.4671693h1.6981583v11.6690016h6.6285934v1.4936047h-8.3267517V0.4671693z"></path> </svg> 